<?xml version="1.0" standalone="no"?>
<!DOCTYPE svg PUBLIC "-//W3C//DTD SVG 20010904//EN"
 "http://www.w3.org/TR/2001/REC-SVG-20010904/DTD/svg10.dtd">
<svg version="1.0" xmlns="http://www.w3.org/2000/svg"
 width="500.000000pt" height="500.000000pt" viewBox="0 0 500.000000 500.000000"
 preserveAspectRatio="xMidYMid meet">

<g transform="translate(0.000000,500.000000) scale(0.100000,-0.100000)"
fill="#000000" stroke="none">
<path d="M2790 3905 c-42 -57 -46 -85 -13 -85 21 0 86 94 81 117 -6 33 -28 23
-68 -32z"/>
<path d="M2613 3933 c-20 -7 -16 -34 21 -145 18 -57 50 -156 70 -220 21 -65
42 -120 47 -124 15 -9 49 6 49 22 0 30 -141 458 -153 466 -13 9 -16 9 -34 1z"/>
<path d="M2509 3819 c-79 -63 -180 -123 -256 -151 -32 -12 -62 -25 -67 -30
-11 -9 52 -208 70 -223 7 -5 30 -50 51 -100 35 -80 42 -90 67 -93 28 -4 76 21
76 38 0 5 -17 50 -39 100 l-39 90 37 10 c20 5 93 10 164 10 70 0 127 3 127 8
0 4 -23 79 -51 167 -28 88 -55 175 -61 193 -5 17 -10 32 -12 32 -2 0 -32 -23
-67 -51z"/>
<path d="M2880 3776 c-44 -15 -66 -28 -68 -40 -6 -32 17 -34 91 -9 82 28 98
38 90 59 -7 19 -34 16 -113 -10z"/>
<path d="M2834 3619 c-10 -16 15 -34 70 -53 66 -21 78 -21 74 6 -5 33 -127 73
-144 47z"/>
<path d="M2104 3595 c-16 -24 -16 -30 1 -86 19 -62 51 -99 86 -99 25 0 24 9
-12 117 -33 99 -47 111 -75 68z"/>
<path d="M1990 2938 l0 -233 218 -112 218 -112 214 109 215 108 3 231 c1 127
0 231 -4 231 -3 0 -101 -48 -217 -106 l-210 -106 -219 112 -218 111 0 -233z"/>
<path d="M1400 3065 c0 -22 -4 -25 -35 -25 -24 0 -37 -6 -45 -19 -6 -12 -10
-105 -10 -234 0 -170 3 -217 14 -226 9 -8 78 -11 227 -9 l214 3 3 229 c3 246
1 256 -49 256 -21 0 -28 5 -31 23 -2 14 -10 22 -23 22 -13 0 -21 -8 -23 -22
-3 -22 -7 -23 -103 -23 -99 0 -99 0 -99 25 0 18 -5 25 -20 25 -15 0 -20 -7
-20 -25z m335 -295 l0 -175 -192 -3 -193 -2 0 180 0 180 193 -2 192 -3 0 -175z"/>
<path d="M1593 2859 c-59 -44 -69 -47 -78 -19 -3 11 -13 20 -21 20 -23 0 -17
-54 9 -78 l23 -21 69 55 c39 31 71 57 73 58 1 2 -3 8 -11 14 -9 8 -25 1 -64
-29z"/>
<path d="M1393 2825 c2 -31 5 -35 30 -35 24 0 27 3 27 35 0 32 -2 35 -30 35
-28 0 -30 -2 -27 -35z"/>
<path d="M1390 2690 c0 -27 3 -30 30 -30 27 0 30 3 30 30 0 27 -3 30 -30 30
-27 0 -30 -3 -30 -30z"/>
<path d="M1480 2690 c0 -28 3 -30 35 -30 32 0 35 2 35 30 0 28 -3 30 -35 30
-32 0 -35 -2 -35 -30z"/>
<path d="M1570 2690 c0 -28 3 -30 35 -30 32 0 35 2 35 30 0 28 -3 30 -35 30
-32 0 -35 -2 -35 -30z"/>
<path d="M3444 2828 c11 -199 15 -218 38 -218 20 0 20 4 15 78 -4 42 -9 116
-13 165 -6 78 -8 87 -26 87 -19 0 -19 -5 -14 -112z"/>
<path d="M3558 2892 c-27 -26 -37 -52 -20 -52 15 0 82 62 77 71 -10 15 -29 9
-57 -19z"/>
<path d="M3322 2873 c-45 -19 -105 -37 -133 -40 -28 -3 -53 -12 -56 -19 -5
-14 7 -108 29 -214 12 -61 15 -65 42 -68 36 -4 46 10 35 57 -5 20 -9 48 -9 63
0 25 2 26 43 21 23 -3 67 -11 98 -19 31 -8 59 -14 61 -14 4 0 0 119 -8 208 -3
34 -9 61 -12 61 -4 -1 -44 -17 -90 -36z"/>
<path d="M3069 2798 c-13 -30 1 -98 23 -112 26 -16 29 -4 22 68 -7 70 -25 87
-45 44z"/>
<path d="M3554 2785 c-9 -23 -5 -24 54 -17 69 9 71 26 4 30 -40 2 -54 -1 -58
-13z"/>
<path d="M3545 2709 c-9 -13 0 -24 40 -47 32 -19 54 -15 41 7 -11 18 -76 50
-81 40z"/>
<path d="M1870 2533 c-47 -24 -142 -74 -212 -109 -71 -36 -128 -68 -128 -72 0
-7 137 -78 632 -328 l267 -136 451 229 c247 125 450 230 450 233 0 3 -98 55
-218 117 l-217 112 -223 -114 c-123 -62 -229 -116 -236 -118 -8 -3 -38 7 -68
22 -29 15 -133 69 -230 119 -97 51 -178 92 -180 91 -2 0 -41 -21 -88 -46z"/>
<path d="M1512 1989 l3 -221 95 -50 c212 -112 809 -408 822 -408 7 1 216 104
463 229 l450 229 3 221 c1 122 -1 221 -6 221 -8 0 -72 -32 -601 -302 l-314
-160 -41 22 c-101 54 -864 440 -870 440 -4 0 -5 -99 -4 -221z"/>
<path d="M1017 1904 c-4 -4 -7 -16 -7 -26 0 -13 -8 -18 -29 -18 -56 0 -61 -20
-61 -252 0 -174 2 -209 16 -222 13 -14 47 -16 214 -16 109 0 205 3 214 6 14 5
16 36 16 235 0 215 -1 229 -19 239 -11 5 -29 10 -40 10 -14 0 -21 6 -21 20 0
11 -7 23 -15 27 -19 7 -26 1 -29 -24 -3 -16 -14 -18 -99 -21 -93 -3 -96 -2
-99 20 -3 23 -27 35 -41 22z m328 -314 l0 -175 -190 0 -190 0 -3 165 c-1 90 0
170 3 177 3 11 45 13 192 11 l188 -3 0 -175z"/>
<path d="M1212 1639 c-40 -39 -66 -57 -76 -53 -9 3 -16 10 -16 15 0 15 -30 10
-37 -7 -6 -16 42 -74 62 -74 14 0 155 142 155 157 0 30 -32 16 -88 -38z"/>
<path d="M1000 1600 c0 -27 3 -30 30 -30 27 0 30 3 30 30 0 27 -3 30 -30 30
-27 0 -30 -3 -30 -30z"/>
<path d="M1000 1500 c0 -27 3 -30 30 -30 27 0 30 3 30 30 0 27 -3 30 -30 30
-27 0 -30 -3 -30 -30z"/>
<path d="M3570 1880 c0 -17 -7 -20 -51 -20 l-51 0 4 -52 c9 -104 68 -181 169
-220 l60 -23 -3 -55 c-3 -46 -6 -55 -23 -58 -30 -6 -55 -32 -55 -59 0 -23 1
-23 120 -23 l120 0 0 29 c0 33 -14 48 -50 53 -23 3 -25 8 -28 61 -2 43 0 57
11 57 8 0 42 14 75 31 88 44 142 128 142 220 l0 39 -50 0 c-43 0 -50 3 -50 20
0 19 -7 20 -170 20 -163 0 -170 -1 -170 -20z m5 -97 c4 -16 14 -52 24 -80 11
-29 16 -53 12 -53 -12 0 -61 51 -75 78 -7 15 -16 39 -20 55 -6 25 -4 27 24 27
24 0 31 -5 35 -27z m395 15 c-1 -41 -74 -148 -100 -148 -4 0 0 24 11 53 10 28
20 64 24 80 4 22 11 27 35 27 17 0 30 -5 30 -12z"/>
</g>
</svg>
