<?xml version="1.0" encoding="UTF-8"?>
<svg version="1.1" xmlns="http://www.w3.org/2000/svg" viewBox="120 120 300 300">
<path d="M0 0 C4.66945046 1.55648349 8.57561363 3.2647176 12.8125 5.625 C18.34933724 8.65210065 23.95327673 11.42970104 29.6875 14.0625 C35.6385013 16.80635094 41.27692067 19.82096805 46.89453125 23.20703125 C53.79000672 27.18819256 61.02315251 30.55946826 68.16918945 34.0637207 C68.877771 34.41394287 69.58635254 34.76416504 70.31640625 35.125 C71.27848999 35.59873047 71.27848999 35.59873047 72.26000977 36.08203125 C74 37 74 37 76.6875 38.8125 C79.67463187 40.34643258 80.79869525 39.8653993 84 39 C85.71538536 38.266119 87.40515154 37.47055181 89.0703125 36.62890625 C90.03831787 36.14268799 91.00632324 35.65646973 92.00366211 35.15551758 C93.03370361 34.62982178 94.06374512 34.10412598 95.125 33.5625 C96.20467041 33.01682373 97.28434082 32.47114746 98.39672852 31.90893555 C105.33328302 28.39168654 112.23151786 24.8057742 119.10375977 21.16479492 C126.80693339 17.08721493 134.53770432 13.06337716 142.27859497 9.05795288 C143.79750376 8.27123123 145.31563652 7.48300944 146.83297729 6.69326782 C148.97128633 5.58066152 151.11223191 4.47329886 153.25390625 3.3671875 C153.9050943 3.02708145 154.55628235 2.6869754 155.22720337 2.33656311 C159.77170934 0 159.77170934 0 162 0 C162 13.53 162 27.06 162 41 C153.29108085 45.93733999 144.66208532 50.82445141 135.5625 55 C126.18132954 59.30793653 117.10452091 64.1405207 108 69 C104.58575217 70.817094 101.16846426 72.62835381 97.75 74.4375 C96.9760791 74.8504834 96.2021582 75.2634668 95.40478516 75.68896484 C93.27991158 76.81389791 91.14566644 77.91531511 89 79 C88.36513672 79.32500488 87.73027344 79.65000977 87.07617188 79.98486328 C83.16619412 81.8481132 81.11729147 82.19050678 77 81 C74.5696231 79.87524294 72.21893142 78.71493103 69.85546875 77.46484375 C68.8242968 76.92942711 68.8242968 76.92942711 67.77229309 76.38319397 C65.57424929 75.24048932 63.38075551 74.08936405 61.1875 72.9375 C58.32796154 71.44442653 55.46669652 69.95467672 52.60546875 68.46484375 C51.89516006 68.09413757 51.18485138 67.7234314 50.45301819 67.3414917 C44.81652703 64.40603301 39.14126177 61.55362295 33.45153809 58.72303772 C28.66122751 56.33794199 23.90685765 53.89716442 19.1875 51.375 C18.54103516 51.03210938 17.89457031 50.68921875 17.22851562 50.3359375 C11.46054821 47.26870947 5.73581369 44.12862565 0 41 C0 27.47 0 13.94 0 0 Z " fill="#379ED2" transform="translate(177,291)"/>
<path d="M0 0 C2.36621055 1.19132129 4.68388239 2.40729084 7 3.6875 C14.25393631 7.62897132 21.59958801 11.34147342 29 15 C30.05703125 15.56976563 31.1140625 16.13953125 32.203125 16.7265625 C35.31636121 18.14404156 36.79132586 18.06330159 39.984375 16.91796875 C43.34564401 15.38715825 46.54642879 13.59568749 49.76171875 11.78125 C54.1909665 9.34489659 58.71589496 7.11812257 63.25366211 4.89208984 C63.89698486 4.57449707 64.54030762 4.2569043 65.203125 3.9296875 C65.83669922 3.61999023 66.47027344 3.31029297 67.12304688 2.99121094 C69.02701845 2.02381177 69.02701845 2.02381177 70.83007812 0.79785156 C73.70858117 -1.08692019 75.3403505 -2.1000025 78.80859375 -1.57421875 C83.26065213 0.62183942 87.68256511 2.85020069 92.0625 5.1875 C92.98828857 5.67710205 93.91407715 6.1667041 94.86791992 6.67114258 C97.58165608 8.10846579 100.29165725 9.55254354 103 11 C104.11084961 11.59361328 104.11084961 11.59361328 105.24414062 12.19921875 C108.83555701 14.12158075 112.42105566 16.05448851 116 18 C115 21 115 21 112 22.7265625 C110.67112528 23.36868508 109.33738397 24.00079366 108 24.625 C106.52897715 25.33392667 105.0589556 26.04493409 103.58984375 26.7578125 C102.44878174 27.30937012 102.44878174 27.30937012 101.28466797 27.87207031 C97.66316882 29.65998718 94.11671235 31.58278658 90.5625 33.5 C84.85049455 36.56533119 79.07591632 39.4148254 73.1875 42.125 C67.23939462 44.86546367 61.60465599 47.89105766 55.98046875 51.2578125 C52.57432393 53.24882245 49.12871867 55.1249772 45.625 56.9375 C44.50351562 57.52402344 43.38203125 58.11054688 42.2265625 58.71484375 C38.72094495 60.11114904 36.72833434 60.50709211 33 60 C30.57252037 58.92112016 28.40571601 57.8254949 26.125 56.5 C24.79278567 55.75710433 23.45941311 55.01628261 22.125 54.27734375 C21.44308594 53.89690918 20.76117188 53.51647461 20.05859375 53.12451172 C16.79446542 51.34147388 13.46219364 49.70344508 10.125 48.0625 C3.81059996 44.93842016 -2.42069731 41.67771144 -8.63525391 38.36010742 C-14.11938235 35.44206842 -19.65961064 32.6524556 -25.2265625 29.89648438 C-31.5661085 26.74580639 -37.79186053 23.40172026 -44 20 C-43 17 -43 17 -41.125 15.8125 C-39 15 -39 15 -36 15 C-36 14.34 -36 13.68 -36 13 C-35.00742188 12.50371094 -34.01484375 12.00742187 -32.9921875 11.49609375 C-32.34169434 11.17044434 -31.69120117 10.84479492 -31.02099609 10.50927734 C-29.57990947 9.78955376 -28.13750344 9.07246644 -26.69384766 8.35791016 C-23.10466866 6.57710399 -19.54332787 4.76882591 -16.03125 2.83984375 C-15.4139502 2.50863525 -14.79665039 2.17742676 -14.16064453 1.83618164 C-12.46208923 0.92187863 -10.77369729 -0.01123166 -9.0859375 -0.9453125 C-5.14254616 -2.29305384 -3.74113176 -1.73592361 0 0 Z " fill="#F1902D" transform="translate(222,261)"/>
<path d="M0 0 C0 13.53 0 27.06 0 41 C-8.70891915 45.93733999 -17.33791468 50.82445141 -26.4375 55 C-34.97129414 58.91881202 -43.24834909 63.26215668 -51.53125 67.68261719 C-55.80751108 69.96453024 -60.09038625 72.23381964 -64.375 74.5 C-65.16567871 74.9213623 -65.95635742 75.34272461 -66.77099609 75.77685547 C-76.64169078 81 -76.64169078 81 -81 81 C-81.12366591 75.51912668 -81.21436943 70.03906643 -81.2746582 64.55712891 C-81.29979147 62.69272719 -81.33390383 60.8284239 -81.37719727 58.96435547 C-81.43790352 56.28328169 -81.46622058 53.60351098 -81.48828125 50.921875 C-81.51408768 50.08944275 -81.5398941 49.2570105 -81.56648254 48.39935303 C-81.56928334 42.61089888 -81.56928334 42.61089888 -78.7590332 39.59521484 C-73.89109345 36.78067468 -73.89109345 36.78067468 -71.3671875 35.5546875 C-70.48957764 35.12333496 -69.61196777 34.69198242 -68.70776367 34.24755859 C-67.77295166 33.79461426 -66.83813965 33.34166992 -65.875 32.875 C-63.86770053 31.88701819 -61.86120129 30.89740903 -59.85546875 29.90625 C-58.85821777 29.41382813 -57.8609668 28.92140625 -56.83349609 28.4140625 C-52.91917201 26.4606104 -49.04994647 24.42866327 -45.1875 22.375 C-36.72192084 17.88972492 -28.22807494 13.45980928 -19.71939087 9.0569458 C-18.20134012 8.27064452 -16.68406238 7.48284899 -15.16757202 6.69354248 C-13.02908089 5.58084263 -10.8879519 4.47338908 -8.74609375 3.3671875 C-7.76929657 2.85702087 -7.76929657 2.85702087 -6.77276611 2.33654785 C-2.22829192 0 -2.22829192 0 0 0 Z " fill="#2A669F" transform="translate(339,291)"/>
<path d="M0 0 C10.12849162 3.37616387 10.12849162 3.37616387 14.734375 5.8125 C16.21357422 6.58980469 16.21357422 6.58980469 17.72265625 7.3828125 C18.72167969 7.91648438 19.72070312 8.45015625 20.75 9 C21.76449219 9.53367188 22.77898437 10.06734375 23.82421875 10.6171875 C31.35075076 14.59309534 31.35075076 14.59309534 34.6796875 16.67944336 C36.89251448 18.20318327 36.89251448 18.20318327 39.328125 17.94140625 C43.02246134 16.63974681 46.33003718 14.83372867 49.75 12.9375 C55.90431821 9.60179869 62.10542732 6.42310631 68.4375 3.4375 C69.16485352 3.09130615 69.89220703 2.7451123 70.64160156 2.38842773 C75.74945366 0 75.74945366 0 78 0 C78 13.86 78 27.72 78 42 C73.276875 44.475 68.55375 46.95 63.6875 49.5 C62.20080811 50.28310547 60.71411621 51.06621094 59.18237305 51.87304688 C58.01230713 52.48212891 56.84224121 53.09121094 55.63671875 53.71875 C55.02590454 54.04262695 54.41509033 54.36650391 53.7857666 54.70019531 C50.97056316 56.15723221 49.22055322 57 46 57 C46 57.66 46 58.32 46 59 C42.5261001 61.13778455 40.04733992 61.41222907 36 61 C33.05819021 59.75218672 30.36481042 58.13742779 27.625 56.5 C26.03552263 55.58174129 24.44433727 54.66643346 22.8515625 53.75390625 C22.04879883 53.29258301 21.24603516 52.83125977 20.41894531 52.35595703 C16.67470572 50.25709685 12.84890195 48.33583121 9 46.4375 C8.32404785 46.10363281 7.6480957 45.76976562 6.95166016 45.42578125 C5.30255861 44.61423063 3.6514476 43.80676586 2 43 C1.34 42.67 0.68 42.34 0 42 C0 28.14 0 14.28 0 0 Z " fill="#89B445" transform="translate(219,208)"/>
<path d="M0 0 C4.45205838 2.19605817 8.87397136 4.42441944 13.25390625 6.76171875 C14.17969482 7.2513208 15.1054834 7.74092285 16.05932617 8.24536133 C18.77306233 9.68268454 21.4830635 11.12676229 24.19140625 12.57421875 C25.30225586 13.16783203 25.30225586 13.16783203 26.43554688 13.7734375 C30.02696326 15.6957995 33.61246191 17.62870726 37.19140625 19.57421875 C36.19140625 22.57421875 36.19140625 22.57421875 33.19140625 24.30078125 C31.86253153 24.94290383 30.52879022 25.57501241 29.19140625 26.19921875 C27.7203834 26.90814542 26.25036185 27.61915284 24.78125 28.33203125 C23.64018799 28.88358887 23.64018799 28.88358887 22.47607422 29.44628906 C18.85457507 31.23420593 15.3081186 33.15700533 11.75390625 35.07421875 C6.04190588 38.13954722 0.26736075 40.98913144 -5.62109375 43.69921875 C-11.65704769 46.47918708 -17.38396585 49.55620418 -23.09765625 52.9609375 C-25.75261034 54.54090298 -28.40826312 56.09560386 -31.12109375 57.57421875 C-32.22904297 58.19296875 -32.22904297 58.19296875 -33.359375 58.82421875 C-36.70499315 59.84871426 -39.39421315 59.13211594 -42.80859375 58.57421875 C-42.8827214 53.35981362 -42.93718479 48.14571482 -42.97338867 42.9309082 C-42.98848016 41.15676532 -43.00895566 39.38265977 -43.03491211 37.60864258 C-43.07128016 35.05931388 -43.08831613 32.51047816 -43.1015625 29.9609375 C-43.11704636 29.16709152 -43.13253021 28.37324554 -43.14848328 27.55534363 C-43.15016346 22.06423228 -43.15016346 22.06423228 -41.46484375 19.64648438 C-38.93923243 18.01138931 -36.32929678 16.69874807 -33.62109375 15.38671875 C-32.36580445 14.77230081 -31.11059954 14.15771043 -29.85546875 13.54296875 C-29.19740234 13.22328125 -28.53933594 12.90359375 -27.86132812 12.57421875 C-24.35427768 10.86574127 -20.86266193 9.12655713 -17.37109375 7.38671875 C-16.72180908 7.06614502 -16.07252441 6.74557129 -15.40356445 6.4152832 C-14.77538818 6.10292725 -14.14721191 5.79057129 -13.5 5.46875 C-12.88527832 5.16533691 -12.27055664 4.86192383 -11.63720703 4.54931641 C-9.77692602 3.59366291 -9.77692602 3.59366291 -7.99169922 2.37646484 C-5.11046348 0.49066564 -3.47090404 -0.52618712 0 0 Z " fill="#DF5B2D" transform="translate(300.80859375,259.42578125)"/>
<path d="M0 0 C0.86625 0.12375 1.7325 0.2475 2.625 0.375 C5.53136993 4.31304572 6.90953666 8.75987329 8.359375 13.37890625 C8.60165833 14.13920639 8.84394165 14.89950653 9.09356689 15.68284607 C9.60101745 17.28287606 10.10508833 18.88398143 10.60595703 20.48608398 C11.37479718 22.93685349 12.16139046 25.38144987 12.94921875 27.82617188 C13.4411927 29.38507355 13.93211466 30.9443077 14.421875 32.50390625 C14.65823669 33.23315811 14.89459839 33.96240997 15.13812256 34.71376038 C17.14425732 41.23149211 17.14425732 41.23149211 15.625 44.375 C13.5625 45.625 13.5625 45.625 11.625 46.375 C11.16738281 45.88644531 10.70976562 45.39789063 10.23828125 44.89453125 C6.22579811 42.56141325 2.36765786 42.97991918 -2.1875 43.0625 C-3.06470703 43.05927734 -3.94191406 43.05605469 -4.84570312 43.05273438 C-10.06231762 43.09565342 -14.43743057 43.68423612 -19.375 45.375 C-19.00246094 46.25542969 -18.62992187 47.13585937 -18.24609375 48.04296875 C-17.77300781 49.20441406 -17.29992187 50.36585938 -16.8125 51.5625 C-16.09900391 53.28533203 -16.09900391 53.28533203 -15.37109375 55.04296875 C-14.35040459 58.45727404 -14.11414632 60.07332268 -15.375 63.375 C-18.8102048 65.66513653 -20.360331 65.55342973 -24.375 65.375 C-24.84550781 64.42238281 -25.31601563 63.46976563 -25.80078125 62.48828125 C-26.42957916 61.22130039 -27.05849148 59.95437631 -27.6875 58.6875 C-28.1505957 57.74874023 -28.1505957 57.74874023 -28.62304688 56.79101562 C-30.3988106 53.22079593 -32.27032729 49.76190408 -34.375 46.375 C-34.705 47.035 -35.035 47.695 -35.375 48.375 C-41 48.625 -41 48.625 -44.375 46.375 C-46.47759426 41.83088583 -49.03847942 36.25878459 -47.87890625 31.21875 C-46.51171296 29.04826415 -45.15335454 27.594626 -42.64453125 26.88671875 C-41.89558594 26.71785156 -41.14664063 26.54898438 -40.375 26.375 C-28.73725366 22.45719968 -16.82114851 17.0123955 -8.13671875 8.0703125 C-6.375 6.375 -6.375 6.375 -3.375 6.375 C-3.395625 5.570625 -3.41625 4.76625 -3.4375 3.9375 C-3.35568597 0.58312497 -3.27805041 0.51758691 0 0 Z M-2.375 8.375 C-1.375 11.375 -1.375 11.375 -1.375 11.375 Z M-0.375 14.375 C0.625 17.375 0.625 17.375 0.625 17.375 Z M1.625 20.375 C2.625 23.375 2.625 23.375 2.625 23.375 Z M2.625 25.375 C3.625 27.375 3.625 27.375 3.625 27.375 Z M-40.375 29.375 C-39.375 31.375 -39.375 31.375 -39.375 31.375 Z M4.625 31.375 C5.625 33.375 5.625 33.375 5.625 33.375 Z M-39.375 32.375 C-38.375 34.375 -38.375 34.375 -38.375 34.375 Z M-38.375 35.375 C-37.375 37.375 -37.375 37.375 -37.375 37.375 Z M6.625 37.375 C7.625 39.375 7.625 39.375 7.625 39.375 Z M-36.375 41.375 C-35.375 43.375 -35.375 43.375 -35.375 43.375 Z " fill="#3D9FD1" transform="translate(275.375,140.625)"/>
<path d="M0 0 C0 13.86 0 27.72 0 42 C-4.723125 44.475 -9.44625 46.95 -14.3125 49.5 C-16.54253784 50.6746582 -16.54253784 50.6746582 -18.81762695 51.87304688 C-19.98769287 52.48212891 -21.15775879 53.09121094 -22.36328125 53.71875 C-22.97409546 54.04262695 -23.58490967 54.36650391 -24.2142334 54.70019531 C-27.02943684 56.15723221 -28.77944678 57 -32 57 C-32 57.66 -32 58.32 -32 59 C-35.465 59.495 -35.465 59.495 -39 60 C-39 46.8 -39 33.6 -39 20 C-37.02 19.34 -35.04 18.68 -33 18 C-32.67 17.01 -32.34 16.02 -32 15 C-29.45556641 13.39013672 -29.45556641 13.39013672 -26.1015625 11.6796875 C-25.21541763 11.22349533 -25.21541763 11.22349533 -24.31137085 10.75808716 C-22.42047168 9.78782995 -20.52283567 8.83160527 -18.625 7.875 C-17.35373046 7.22350673 -16.08289146 6.5711726 -14.8125 5.91796875 C-3.24208672 0 -3.24208672 0 0 0 Z " fill="#4D8B40" transform="translate(297,208)"/>
<path d="M0 0 C10.56 0 21.12 0 32 0 C32.495 1.485 32.495 1.485 33 3 C35.64 3 38.28 3 41 3 C42.64890973 8.25515836 41.31848794 13.25273234 38.97265625 18.140625 C38.0309306 19.78948271 37.0216412 21.39942879 36 23 C35.34 23 34.68 23 34 23 C34 23.66 34 24.32 34 25 C32.39967863 25.84069415 30.79458829 26.67231505 29.1875 27.5 C28.29417969 27.9640625 27.40085937 28.428125 26.48046875 28.90625 C24 30 24 30 21 30 C21 32.97 21 35.94 21 39 C21.763125 39.0825 22.52625 39.165 23.3125 39.25 C26 40 26 40 27.875 41.8125 C29 44 29 44 28 48 C20.41 48 12.82 48 5 48 C6 41 6 41 8 39 C9.32 39 10.64 39 12 39 C12 36.36 12 33.72 12 31 C11.34773438 30.76925781 10.69546875 30.53851563 10.0234375 30.30078125 C2.66394012 27.55453813 -2.68079326 25.09829662 -6.375 17.8125 C-8.38632874 12.87560218 -8.39507298 8.25666543 -8 3 C-5.36 3 -2.72 3 0 3 C0 2.01 0 1.02 0 0 Z M-3 9 C-2.59988018 10.27613973 -2.17907912 11.54580367 -1.75 12.8125 C-1.51796875 13.52019531 -1.2859375 14.22789062 -1.046875 14.95703125 C0.07395676 17.51207504 0.07395676 17.51207504 4 20 C3.34 16.7 2.68 13.4 2 10 C0.35 9.67 -1.3 9.34 -3 9 Z M32 9 C31.34 12.3 30.68 15.6 30 19 C33.67230705 15.92000054 34.56802365 13.7517398 35 9 C34.01 9 33.02 9 32 9 Z " fill="#D9473B" transform="translate(356,319)"/>
<path d="M0 0 C1.65 0 3.3 0 5 0 C5.33 0.99 5.66 1.98 6 3 C12.93 3.495 12.93 3.495 20 4 C20.33 2.68 20.66 1.36 21 0 C22.65 0 24.3 0 26 0 C26 1.32 26 2.64 26 4 C27.134375 4.12375 28.26875 4.2475 29.4375 4.375 C30.613125 4.58125 31.78875 4.7875 33 5 C34.65702967 8.31405935 34.14162705 12.01378048 34.1328125 15.65625 C34.13376923 16.51432251 34.13472595 17.37239502 34.13571167 18.25646973 C34.13639272 20.07218499 34.13454367 21.88790268 34.13037109 23.70361328 C34.12502178 26.48866221 34.13031861 29.27354986 34.13671875 32.05859375 C34.13605796 33.82031286 34.13477676 35.58203186 34.1328125 37.34375 C34.13483673 38.18023071 34.13686096 39.01671143 34.13894653 39.87854004 C34.11495917 45.77008166 34.11495917 45.77008166 33 48 C29.40261741 49.19912753 26.11872178 49.14335509 22.375 49.1328125 C21.63169434 49.13376923 20.88838867 49.13472595 20.12255859 49.13571167 C18.55240799 49.13639159 16.98225456 49.13455043 15.41210938 49.13037109 C13.00905035 49.12502015 10.60617822 49.13032242 8.203125 49.13671875 C6.67708292 49.13605794 5.15104096 49.1347767 3.625 49.1328125 C2.90618652 49.13483673 2.18737305 49.13686096 1.44677734 49.13894653 C-1.64393507 49.12442286 -4.04421077 48.98526308 -7 48 C-8.6830513 44.63389741 -8.18479006 40.82813694 -8.203125 37.125 C-8.20882507 36.24473145 -8.21452515 35.36446289 -8.22039795 34.45751953 C-8.22985055 32.59473881 -8.23638296 30.73194135 -8.24023438 28.86914062 C-8.24996111 26.01142509 -8.28099017 23.15442229 -8.3125 20.296875 C-8.31902783 18.48958762 -8.32427916 16.68229508 -8.328125 14.875 C-8.3404718 14.01664551 -8.3528186 13.15829102 -8.36553955 12.27392578 C-8.35644531 9.8671875 -8.35644531 9.8671875 -8 6 C-5 4 -5 4 -1 4 C-0.67 2.68 -0.34 1.36 0 0 Z M-3 14 C-3 23.57 -3 33.14 -3 43 C1.39648135 43.16547266 5.79284326 43.32785972 10.18969727 43.48217773 C11.68650938 43.53566434 13.18325663 43.5909987 14.67993164 43.64819336 C16.82684332 43.72991956 18.97389793 43.8050746 21.12109375 43.87890625 C23.06133423 43.94960327 23.06133423 43.94960327 25.04077148 44.02172852 C27.88693808 44.3470272 27.88693808 44.3470272 29 43 C29.08775605 40.85441173 29.10695219 38.70595579 29.09765625 36.55859375 C29.09515869 35.38353271 29.09266113 34.20847168 29.09008789 32.99780273 C29.08098389 31.49290283 29.07187988 29.98800293 29.0625 28.4375 C29.041875 23.673125 29.02125 18.90875 29 14 C18.44 14 7.88 14 -3 14 Z " fill="#C2D699" transform="translate(168,215)"/>
<path d="M0 0 C1.9375 0.3125 1.9375 0.3125 4 1 C4.33 1.99 4.66 2.98 5 4 C11.93 4.495 11.93 4.495 19 5 C19.33 3.68 19.66 2.36 20 1 C21.32 0.67 22.64 0.34 24 0 C24.20625 0.61875 24.4125 1.2375 24.625 1.875 C26.54849247 4.84767018 28.67319235 5.07981916 32 6 C33.92257175 7.92257175 33.12908424 10.78085108 33.13894653 13.33874512 C33.1369223 14.22727173 33.13489807 15.11579834 33.1328125 16.03125 C33.13376923 16.93750122 33.13472595 17.84375244 33.13571167 18.77746582 C33.13639353 20.69751047 33.13453882 22.61755741 33.13037109 24.53759766 C33.12502292 27.48735704 33.13031588 30.43696414 33.13671875 33.38671875 C33.13605797 35.24739617 33.13477681 37.1080735 33.1328125 38.96875 C33.13483673 39.85727661 33.13686096 40.74580322 33.13894653 41.66125488 C33.11494988 47.88505012 33.11494988 47.88505012 32 49 C29.0546443 49.10110353 26.1332244 49.13969279 23.1875 49.1328125 C21.86141724 49.13424759 21.86141724 49.13424759 20.50854492 49.13571167 C18.63557871 49.13639351 16.76261014 49.13453893 14.88964844 49.13037109 C12.01231612 49.12502289 9.13513992 49.13031593 6.2578125 49.13671875 C4.44270799 49.13605797 2.62760357 49.13477681 0.8125 49.1328125 C-0.05415283 49.13483673 -0.92080566 49.13686096 -1.8137207 49.13894653 C-7.88504991 49.11495009 -7.88504991 49.11495009 -9 48 C-9.11356724 44.9936175 -9.16418912 42.01107558 -9.16796875 39.00390625 C-9.17129715 38.1000267 -9.17462555 37.19614716 -9.17805481 36.26487732 C-9.18312796 34.34903473 -9.18546302 32.43318328 -9.18530273 30.51733398 C-9.18748813 27.57846582 -9.20563665 24.63997348 -9.22460938 21.70117188 C-9.22754337 19.84375129 -9.22952813 17.98632891 -9.23046875 16.12890625 C-9.23765427 15.24554092 -9.24483978 14.3621756 -9.25224304 13.45204163 C-9.22882139 7.22882139 -9.22882139 7.22882139 -7 5 C-3.875 4.875 -3.875 4.875 -1 5 C-0.67 3.35 -0.34 1.7 0 0 Z M-4 15 C-4 24.57 -4 34.14 -4 44 C6.56 44 17.12 44 28 44 C28 34.43 28 24.86 28 15 C17.44 15 6.88 15 -4 15 Z " fill="#C4655F" transform="translate(135,317)"/>
<path d="M0 0 C1.65 0 3.3 0 5 0 C5.83103 3.68196566 6.18107734 7.18715455 6.31640625 10.95703125 C6.35830078 12.06884766 6.40019531 13.18066406 6.44335938 14.32617188 C6.48267578 15.47666016 6.52199219 16.62714844 6.5625 17.8125 C6.60568359 18.98232422 6.64886719 20.15214844 6.69335938 21.35742188 C6.79918279 24.23817031 6.90126825 27.11900123 7 30 C5.35 30.33 3.7 30.66 2 31 C2 30.34 2 29.68 2 29 C0.72769531 28.80083984 0.72769531 28.80083984 -0.5703125 28.59765625 C-4.04063477 27.992919 -7.44590618 27.24228733 -10.875 26.4375 C-12.60363281 26.03337891 -12.60363281 26.03337891 -14.3671875 25.62109375 C-15.23601562 25.41613281 -16.10484375 25.21117187 -17 25 C-16.67 26.051875 -16.34 27.10375 -16 28.1875 C-15.1593668 31.39241406 -14.71205289 33.7365994 -15 37 C-16 38 -16 38 -19.5625 38.0625 C-20.696875 38.041875 -21.83125 38.02125 -23 38 C-24.45184478 33.46298506 -25.23509196 29.81938524 -25 25 C-25.78375 25.04125 -26.5675 25.0825 -27.375 25.125 C-30 25 -30 25 -32 23 C-32.1953125 20.3984375 -32.1953125 20.3984375 -32.125 17.375 C-32.10695313 16.37210938 -32.08890625 15.36921875 -32.0703125 14.3359375 C-32.04710937 13.56507813 -32.02390625 12.79421875 -32 12 C-27.5847747 10.47165278 -23.14974932 9.22400782 -18.625 8.0625 C-14.42526913 6.97200753 -10.29463305 5.83627802 -6.25 4.25 C-3 3 -3 3 0 3 C0 2.01 0 1.02 0 0 Z M-27 13 C-26 15 -26 15 -26 15 Z M-27 16 C-26 18 -26 18 -26 18 Z " fill="#8DB547" transform="translate(345,227)"/>
<path d="M0 0 C4.22893468 -0.11633933 8.45745674 -0.18729952 12.6875 -0.25 C13.88568359 -0.28351563 15.08386719 -0.31703125 16.31835938 -0.3515625 C18.05375977 -0.37089844 18.05375977 -0.37089844 19.82421875 -0.390625 C20.88729248 -0.41157227 21.95036621 -0.43251953 23.0456543 -0.45410156 C26.79389976 0.1220274 28.43741869 1.22641043 31 4 C31 5.65 31 7.3 31 9 C19.45 9 7.9 9 -4 9 C-4 19.56 -4 30.12 -4 41 C6.11216734 40.92086041 6.11216734 40.92086041 16.22412109 40.81982422 C18.10478271 40.81233154 18.10478271 40.81233154 20.0234375 40.8046875 C21.31169434 40.79421387 22.59995117 40.78374023 23.92724609 40.77294922 C27 41 27 41 29 43 C24.03377651 43.02465098 19.06758834 43.04283649 14.10131836 43.05493164 C12.41055684 43.0599719 10.71979971 43.06680405 9.02905273 43.07543945 C6.60399293 43.08751857 4.17899056 43.09323123 1.75390625 43.09765625 C0.61327477 43.10539818 0.61327477 43.10539818 -0.55039978 43.11329651 C-2.3673257 43.11349238 -4.18413127 43.06197277 -6 43 C-7.86962718 41.13037282 -7.12886303 38.45336439 -7.13894653 35.96618652 C-7.1369223 35.12140747 -7.13489807 34.27662842 -7.1328125 33.40625 C-7.13376923 32.54439087 -7.13472595 31.68253174 -7.13571167 30.79455566 C-7.1363935 28.96866788 -7.13453904 27.14277769 -7.13037109 25.31689453 C-7.12502286 22.51198922 -7.13031599 19.70724405 -7.13671875 16.90234375 C-7.13605797 15.13281214 -7.13477681 13.36328064 -7.1328125 11.59375 C-7.13483673 10.74897095 -7.13686096 9.90419189 -7.13894653 9.03381348 C-7.11495031 3.11495031 -7.11495031 3.11495031 -6 2 C-4.00041636 1.95919217 -1.99954746 1.95745644 0 2 C0 1.34 0 0.68 0 0 Z " fill="#CB493E" transform="translate(134,322)"/>
<path d="M0 0 C1.32 0 2.64 0 4 0 C4 0.99 4 1.98 4 3 C9.28 3 14.56 3 20 3 C20.33 2.01 20.66 1.02 21 0 C24 1 24 1 26 3 C27.64991582 3.70710678 29.31562256 4.37943989 31 5 C31 6.65 31 8.3 31 10 C30.34 10.33 29.68 10.66 29 11 C29 10.01 29 9.02 29 8 C28.01 8.33 27.02 8.66 26 9 C26.66 9.66 27.32 10.32 28 11 C16.45 11 4.9 11 -7 11 C-6.34 8.69 -5.68 6.38 -5 4 C-4.360625 3.896875 -3.72125 3.79375 -3.0625 3.6875 C-2.381875 3.460625 -1.70125 3.23375 -1 3 C-0.67 2.01 -0.34 1.02 0 0 Z " fill="#8DB349" transform="translate(169,217)"/>
<path d="M0 0 C4.46632783 -0.36213469 4.46632783 -0.36213469 6.75 1.1875 C8.28838998 3.41816548 8.64005447 5.3364031 9 8 C9.66 8 10.32 8 11 8 C11.66 6.02 12.32 4.04 13 2 C13.33 2 13.66 2 14 2 C14 4.97 14 7.94 14 11 C14.763125 11.0825 15.52625 11.165 16.3125 11.25 C19 12 19 12 20.875 13.8125 C22 16 22 16 21 20 C13.41 20 5.82 20 -2 20 C-1 13 -1 13 1 11 C2.32 11 3.64 11 5 11 C5 8.36 5 5.72 5 3 C2.525 2.01 2.525 2.01 0 1 C0 0.67 0 0.34 0 0 Z " fill="#D55449" transform="translate(363,347)"/>
<path d="M0 0 C1.65 0 3.3 0 5 0 C5.83103 3.68196566 6.18107734 7.18715455 6.31640625 10.95703125 C6.35830078 12.06884766 6.40019531 13.18066406 6.44335938 14.32617188 C6.48267578 15.47666016 6.52199219 16.62714844 6.5625 17.8125 C6.60568359 18.98232422 6.64886719 20.15214844 6.69335938 21.35742188 C6.79918279 24.23817031 6.90126825 27.11900123 7 30 C5.35 30.33 3.7 30.66 2 31 C2 30.34 2 29.68 2 29 C1.236875 28.896875 0.47375 28.79375 -0.3125 28.6875 C-5.29440864 27.75866958 -10.12637995 26.37883557 -15 25 C-15 24.67 -15 24.34 -15 24 C-13.24967156 24.14183696 -11.49974466 24.28863429 -9.75 24.4375 C-8.28820312 24.55931641 -8.28820312 24.55931641 -6.796875 24.68359375 C-4.42828679 24.95154856 -2.29623832 25.39583992 0 26 C-0.03552979 25.31897217 -0.07105957 24.63794434 -0.10766602 23.9362793 C-0.26517792 20.85362135 -0.41393888 17.77060171 -0.5625 14.6875 C-0.61857422 13.61564453 -0.67464844 12.54378906 -0.73242188 11.43945312 C-0.80493164 9.89741211 -0.80493164 9.89741211 -0.87890625 8.32421875 C-0.9260376 7.37635498 -0.97316895 6.42849121 -1.02172852 5.4519043 C-1 3 -1 3 0 0 Z " fill="#B4CD87" transform="translate(345,227)"/>
<path d="M0 0 C2.25 0.2578125 2.25 0.2578125 4 1 C4 5.55793654 3.05178992 6.50875122 -0.02148438 9.66601562 C-0.57126953 10.20935547 -1.12105469 10.75269531 -1.6875 11.3125 C-2.48317383 12.15651367 -2.48317383 12.15651367 -3.29492188 13.01757812 C-4.88671875 14.61328125 -4.88671875 14.61328125 -8 17 C-11.50996484 16.97524707 -12.51957462 16.48042538 -15 14 C-17.65537372 13.43479997 -20.29144713 13.26211802 -23 13 C-23 10.36 -23 7.72 -23 5 C-20.125 4.875 -20.125 4.875 -17 5 C-16.34 5.66 -15.68 6.32 -15 7 C-14.01 7 -13.02 7 -12 7 C-12 7.66 -12 8.32 -12 9 C-7.16618748 8.33103487 -5.0920949 5.10787276 -2 1.6171875 C-1.34 1.08351563 -0.68 0.54984375 0 0 Z " fill="#CE6057" transform="translate(156,336)"/>
<path d="M0 0 C11.22 0 22.44 0 34 0 C34 6.93 34 13.86 34 21 C34.66 21 35.32 21 36 21 C36 25.29 36 29.58 36 34 C34.35 33.67 32.7 33.34 31 33 C28.57890502 32.85436372 26.15493428 32.75343432 23.73046875 32.68359375 C21.86104614 32.62643188 21.86104614 32.62643188 19.95385742 32.56811523 C18.38095947 32.52501221 16.80806152 32.48190918 15.1875 32.4375 C10.175625 32.293125 5.16375 32.14875 0 32 C0 21.44 0 10.88 0 0 Z M1 1 C1 10.57 1 20.14 1 30 C11.56 30 22.12 30 33 30 C33 20.43 33 10.86 33 1 C22.44 1 11.88 1 1 1 Z " fill="#E29C98" transform="translate(130,331)"/>
<path d="M0 0 C1.65 0 3.3 0 5 0 C5 1.32 5 2.64 5 4 C6.134375 4.12375 7.26875 4.2475 8.4375 4.375 C9.613125 4.58125 10.78875 4.7875 12 5 C13.65676373 8.31352746 13.16312244 12.01340362 13.16796875 15.65625 C13.17129715 16.51432251 13.17462555 17.37239502 13.17805481 18.25646973 C13.18312138 20.07217878 13.18546322 21.88789716 13.18530273 23.70361328 C13.18749117 26.4887617 13.20565489 29.27351536 13.22460938 32.05859375 C13.2275429 33.82031114 13.22952797 35.58203042 13.23046875 37.34375 C13.23765427 38.18023071 13.24483978 39.01671143 13.25224304 39.87854004 C13.22882612 45.77117388 13.22882612 45.77117388 11 48 C11.00523682 47.39526855 11.01047363 46.79053711 11.01586914 46.16748047 C11.03677358 43.40333106 11.04970279 40.63919835 11.0625 37.875 C11.07087891 36.92367187 11.07925781 35.97234375 11.08789062 34.9921875 C11.09111328 34.0640625 11.09433594 33.1359375 11.09765625 32.1796875 C11.10289307 31.33132324 11.10812988 30.48295898 11.11352539 29.60888672 C11.0274773 26.41646893 11.0274773 26.41646893 10 21 C9.67 28.59 9.34 36.18 9 44 C8.34 43.67 7.68 43.34 7 43 C7.33 32.77 7.66 22.54 8 12 C6.02 12 4.04 12 2 12 C4.64738916 10.5393715 5.89448334 10 9 10 C9.33 10.66 9.66 11.32 10 12 C10 10.35 10 8.7 10 7 C7.03 6.505 7.03 6.505 4 6 C4 5.01 4 4.02 4 3 C3.01 3 2.02 3 1 3 C0.67 3.66 0.34 4.32 0 5 C-5.28 5 -10.56 5 -16 5 C-15.67 4.34 -15.34 3.68 -15 3 C-8.07 3.495 -8.07 3.495 -1 4 C-0.67 2.68 -0.34 1.36 0 0 Z " fill="#ACC581" transform="translate(189,215)"/>
<path d="M0 0 C0.33 0.66 0.66 1.32 1 2 C3.64 2 6.28 2 9 2 C10.64890973 7.25515836 9.31848794 12.25273234 6.97265625 17.140625 C6.0309306 18.78948271 5.0216412 20.39942879 4 22 C3.34 22 2.68 22 2 22 C2 22.66 2 23.32 2 24 C0.38007835 24.86375896 -1.24611861 25.71575854 -2.875 26.5625 C-3.77992188 27.03816406 -4.68484375 27.51382812 -5.6171875 28.00390625 C-6.40351563 28.33261719 -7.18984375 28.66132813 -8 29 C-8.66 28.67 -9.32 28.34 -10 28 C-9.67 27.34 -9.34 26.68 -9 26 C-7.35 26 -5.7 26 -4 26 C-4 22.7 -4 19.4 -4 16 C-2.68 16 -1.36 16 0 16 C0.99 13.36 1.98 10.72 3 8 C2.01 7.67 1.02 7.34 0 7 C0.33 6.01 0.66 5.02 1 4 C0.61067144 1.85744207 0.61067144 1.85744207 0 0 Z " fill="#D2625C" transform="translate(388,320)"/>
<path d="M0 0 C1.2065625 0.0309375 1.2065625 0.0309375 2.4375 0.0625 C0.4575 1.0525 0.4575 1.0525 -1.5625 2.0625 C-1.5625 4.0425 -1.5625 6.0225 -1.5625 8.0625 C-1.2325 8.0625 -0.9025 8.0625 -0.5625 8.0625 C-0.5625 18.2925 -0.5625 28.5225 -0.5625 39.0625 C9.54966734 38.98336041 9.54966734 38.98336041 19.66162109 38.88232422 C21.54228271 38.87483154 21.54228271 38.87483154 23.4609375 38.8671875 C24.74919434 38.85671387 26.03745117 38.84624023 27.36474609 38.83544922 C30.4375 39.0625 30.4375 39.0625 32.4375 41.0625 C27.47127651 41.08715098 22.50508834 41.10533649 17.53881836 41.11743164 C15.84805684 41.1224719 14.15729971 41.12930405 12.46655273 41.13793945 C10.04149293 41.15001857 7.61649056 41.15573123 5.19140625 41.16015625 C4.05077477 41.16789818 4.05077477 41.16789818 2.88710022 41.17579651 C1.0701743 41.17599238 -0.74663127 41.12447277 -2.5625 41.0625 C-4.43212718 39.19287282 -3.69136303 36.51586439 -3.70144653 34.02868652 C-3.6994223 33.18390747 -3.69739807 32.33912842 -3.6953125 31.46875 C-3.69626923 30.60689087 -3.69722595 29.74503174 -3.69821167 28.85705566 C-3.6988935 27.03116788 -3.69703904 25.20527769 -3.69287109 23.37939453 C-3.68752286 20.57448922 -3.69281599 17.76974405 -3.69921875 14.96484375 C-3.69855797 13.19531214 -3.69727681 11.42578064 -3.6953125 9.65625 C-3.69733673 8.81147095 -3.69936096 7.96669189 -3.70144653 7.09631348 C-3.6730399 0.08958634 -3.6730399 0.08958634 0 0 Z " fill="#C54E48" transform="translate(130.5625,323.9375)"/>
<path d="M0 0 C1.32 0.66 2.64 1.32 4 2 C2.47236536 6.08596252 -0.11084191 7.79826179 -3.625 10.25 C-4.62789062 10.95640625 -5.63078125 11.6628125 -6.6640625 12.390625 C-7.43492187 12.92171875 -8.20578125 13.4528125 -9 14 C-12.875 12.25 -12.875 12.25 -14 10 C-14.33 10.33 -14.66 10.66 -15 11 C-17.33297433 11.04092937 -19.66705225 11.04241723 -22 11 C-22.04241723 8.66705225 -22.04092937 6.33297433 -22 4 C-21 3 -21 3 -18.3125 2.8125 C-14.86704733 3.00752562 -12.22689329 3.82658426 -9 5 C-6.84365964 5 -5.07553648 4.5534764 -3 4 C-3 3.34 -3 2.68 -3 2 C-2.01 1.34 -1.02 0.68 0 0 Z " fill="#AFC382" transform="translate(189,231)"/>
<path d="M0 0 C3.15844818 0.65748573 5.7053221 1.76838139 8.546875 3.28515625 C9.39121094 3.73310547 10.23554688 4.18105469 11.10546875 4.64257812 C11.97816406 5.11115234 12.85085938 5.57972656 13.75 6.0625 C14.63816406 6.53494141 15.52632813 7.00738281 16.44140625 7.49414062 C18.62971037 8.65888314 20.81578248 9.82761712 23 11 C22 14 22 14 20.32592773 15.07495117 C19.61895752 15.39439697 18.9119873 15.71384277 18.18359375 16.04296875 C17.41982422 16.39423828 16.65605469 16.74550781 15.86914062 17.10742188 C14.66547852 17.64206055 14.66547852 17.64206055 13.4375 18.1875 C12.63119141 18.55552734 11.82488281 18.92355469 10.99414062 19.30273438 C9.00013702 20.21124489 7.00223042 21.10980336 5 22 C5 21.01 5 20.02 5 19 C5.99 19 6.98 19 8 19 C8 17.35 8 15.7 8 14 C7.34 13.67 6.68 13.34 6 13 C6 12.01 6 11.02 6 10 C6.66 9.67 7.32 9.34 8 9 C7.2575 8.071875 7.2575 8.071875 6.5 7.125 C5 5 5 5 5 3 C3.35 2.67 1.7 2.34 0 2 C0 1.34 0 0.68 0 0 Z " fill="#DC6135" transform="translate(315,268)"/>
<path d="M0 0 C2.3145363 3.47180445 3.44955764 6.99795123 4.6875 10.9375 C4.92533203 11.65357422 5.16316406 12.36964844 5.40820312 13.10742188 C6.57118019 16.78734052 7.36458862 19.34088449 6 23 C3.9375 24.25 3.9375 24.25 2 25 C1.401875 24.525625 0.80375 24.05125 0.1875 23.5625 C-2.00382924 21.83534256 -2.00382924 21.83534256 -5 21 C-5.08912219 17.16774573 -4.87867729 13.73437848 -4 10 C-4.66 10 -5.32 10 -6 10 C-6.144375 9.236875 -6.28875 8.47375 -6.4375 7.6875 C-6.9632594 4.91827092 -6.9632594 4.91827092 -8 2 C-6.68 2 -5.36 2 -4 2 C-3.87625 2.9075 -3.7525 3.815 -3.625 4.75 C-3.06012816 7.68733359 -2.31441625 9.38582642 -1 12 C-0.24670333 14.34665716 0.44250517 16.70497518 1.12109375 19.07421875 C1.41113281 19.70972656 1.70117188 20.34523437 2 21 C2.99 21.33 3.98 21.66 5 22 C4.65066406 20.97519531 4.30132812 19.95039063 3.94140625 18.89453125 C3.48160964 17.53390863 3.0219832 16.17322849 2.5625 14.8125 C2.33240234 14.13896484 2.10230469 13.46542969 1.86523438 12.77148438 C-0.52276972 5.67668959 -0.52276972 5.67668959 -1 2 C-0.67 1.34 -0.34 0.68 0 0 Z M-3 16 C-2 18 -2 18 -2 18 Z " fill="#71B5D0" transform="translate(285,162)"/>
<path d="M0 0 C1.9375 0.3125 1.9375 0.3125 4 1 C4.33 1.99 4.66 2.98 5 4 C11.93 4.495 11.93 4.495 19 5 C19.33 3.68 19.66 2.36 20 1 C21.32 0.67 22.64 0.34 24 0 C24.20625 0.61875 24.4125 1.2375 24.625 1.875 C26.54849247 4.84767018 28.67319235 5.07981916 32 6 C33 7 33 7 33.11352539 10.87719727 C33.11336621 12.60694167 33.10766849 14.33669081 33.09765625 16.06640625 C33.0962413 16.97502914 33.09482635 17.88365204 33.09336853 18.81980896 C33.08775193 21.73407221 33.07519665 24.64825981 33.0625 27.5625 C33.05748714 29.53320202 33.05292386 31.50390524 33.04882812 33.47460938 C33.03777711 38.31643559 33.02050138 43.15820495 33 48 C32.67 48 32.34 48 32 48 C31.67 34.8 31.34 21.6 31 8 C23.78582475 6.25673638 23.78582475 6.25673638 16.8515625 5.83984375 C15.99175781 5.85080078 15.13195312 5.86175781 14.24609375 5.87304688 C13.38113281 5.89431641 12.51617187 5.91558594 11.625 5.9375 C9.86726978 5.97194029 8.10944855 6.00207912 6.3515625 6.02734375 C5.20421631 6.05429321 5.20421631 6.05429321 4.03369141 6.08178711 C2 6 2 6 -1 5 C-0.67 3.35 -0.34 1.7 0 0 Z " fill="#E89E9C" transform="translate(135,317)"/>
<path d="M0 0 C0.33 0.99 0.66 1.98 1 3 C1.99 3 2.98 3 4 3 C4.28875 3.7425 4.5775 4.485 4.875 5.25 C5.91112914 7.9276722 5.91112914 7.9276722 7.125 10.0625 C8 12 8 12 8 16 C5 18 5 18 3.0625 18.0625 C-0.28653168 16.33724125 -1.69325143 13.39084502 -3 10 C-3.70971635 3.91671696 -3.70971635 3.91671696 -1.5 1.0625 C-1.005 0.711875 -0.51 0.36125 0 0 Z " fill="#379CD4" transform="translate(251,186)"/>
<path d="M0 0 C0 0.66 0 1.32 0 2 C-4.455 3.485 -4.455 3.485 -9 5 C-9.06058594 5.69867188 -9.12117188 6.39734375 -9.18359375 7.1171875 C-9.26738281 8.02726563 -9.35117187 8.93734375 -9.4375 9.875 C-9.51871094 10.77992188 -9.59992188 11.68484375 -9.68359375 12.6171875 C-10 15 -10 15 -11 17 C-13.375 17.125 -13.375 17.125 -16 17 C-18 15 -18 15 -18.1953125 12.3984375 C-18.17210937 11.40070313 -18.14890625 10.40296875 -18.125 9.375 C-18.10695313 8.37210938 -18.08890625 7.36921875 -18.0703125 6.3359375 C-18.04710937 5.56507813 -18.02390625 4.79421875 -18 4 C-12.23156972 1.92928144 -6.16800656 0 0 0 Z M-13 5 C-12 7 -12 7 -12 7 Z M-13 8 C-12 10 -12 10 -12 10 Z " fill="#9FBB71" transform="translate(331,235)"/>
<path d="M0 0 C10.23 0 20.46 0 31 0 C31.66 1.98 32.32 3.96 33 6 C33.66 6.66 34.32 7.32 35 8 C33.68 8 32.36 8 31 8 C30.34 6.35 29.68 4.7 29 3 C15.14 2.505 15.14 2.505 1 2 C1 2.99 1 3.98 1 5 C0.01 5.495 0.01 5.495 -1 6 C-1 6.66 -1 7.32 -1 8 C-2.32 8 -3.64 8 -5 8 C-5 9.32 -5 10.64 -5 12 C-5.66 12 -6.32 12 -7 12 C-8.35439668 9.29120665 -8.06501451 6.99066732 -8 4 C-5.36 4 -2.72 4 0 4 C0 2.68 0 1.36 0 0 Z " fill="#BA534B" transform="translate(357,319)"/>
<path d="M0 0 C1.5159375 0.0309375 1.5159375 0.0309375 3.0625 0.0625 C3.7225 0.0625 4.3825 0.0625 5.0625 0.0625 C6.72916667 0.0625 8.39583333 0.0625 10.0625 0.0625 C11.125 1.8125 11.125 1.8125 12.0625 4.0625 C11.7325 5.3825 11.4025 6.7025 11.0625 8.0625 C6.1125 8.0625 1.1625 8.0625 -3.9375 8.0625 C-3.9375 0.0837766 -3.9375 0.0837766 0 0 Z " fill="#D5E3B6" transform="translate(178.9375,245.9375)"/>
<path d="M0 0 C10.125 3.375 10.125 3.375 14.47265625 5.69921875 C15.39111328 6.18583984 16.30957031 6.67246094 17.25585938 7.17382812 C18.18205078 7.67333984 19.10824219 8.17285156 20.0625 8.6875 C21.02349609 9.19861328 21.98449219 9.70972656 22.97460938 10.23632812 C25.31977495 11.4847496 27.66138312 12.73936683 30 14 C29.01 14.66 28.02 15.32 27 16 C26.34 15.67 25.68 15.34 25 15 C25 14.34 25 13.68 25 13 C24.34 12.9175 23.68 12.835 23 12.75 C19.000166 11.7500415 15.63099814 9.91295131 12 8 C10.66805942 7.33055508 9.33511267 6.66309605 8 6 C8 5.34 8 4.68 8 4 C5.69 3.67 3.38 3.34 1 3 C1.09395795 7.59018937 1.20014291 12.17987741 1.31738281 16.76953125 C1.35552961 18.32902398 1.39040682 19.8886004 1.421875 21.44824219 C1.46783825 23.69756874 1.52577808 25.94632615 1.5859375 28.1953125 C1.59748871 28.8861795 1.60903992 29.57704651 1.62094116 30.28884888 C1.77239588 35.32139806 2.75055183 39.50110365 5 44 C3.35 43.34 1.7 42.68 0 42 C0 28.14 0 14.28 0 0 Z " fill="#B5C891" transform="translate(219,208)"/>
<path d="M0 0 C-0.33 2.31 -0.66 4.62 -1 7 C-4.875 5.25 -4.875 5.25 -6 3 C-6.99 2.67 -7.98 2.34 -9 2 C-8.72965366 4.43717258 -8.72965366 4.43717258 -8 7 C-7.01 7.66 -6.02 8.32 -5 9 C-5.66 9 -6.32 9 -7 9 C-6.67 10.98 -6.34 12.96 -6 15 C-4.68 15.33 -3.36 15.66 -2 16 C-1.34 14.35 -0.68 12.7 0 11 C0.66 11 1.32 11 2 11 C1.67 13.97 1.34 16.94 1 20 C-4.625 20.25 -4.625 20.25 -8 18 C-10.10259426 13.45588583 -12.66347942 7.88378459 -11.50390625 2.84375 C-10.06354766 0.55711067 -8.40193133 -0.79903434 -6 -2 C-3.52710538 -2 -2.09394158 -1.27132167 0 0 Z M-4 1 C-3 3 -3 3 -3 3 Z M-3 4 C-2 6 -2 6 -2 6 Z M0 13 C1 15 1 15 1 15 Z " fill="#70B3CD" transform="translate(239,169)"/>
<path d="M0 0 C0 1.65 0 3.3 0 5 C-1.88842514 5.87042243 -3.78611902 6.72075474 -5.6875 7.5625 C-6.74324219 8.03816406 -7.79898437 8.51382813 -8.88671875 9.00390625 C-12.16633893 10.05322011 -13.75895539 10.00418265 -17 9 C-17 7.35 -17 5.7 -17 4 C-5.47835991 -0.59225513 -5.47835991 -0.59225513 0 0 Z " fill="#5CA3C8" transform="translate(308,153)"/>
<path d="M0 0 C2.3125 -0.3125 2.3125 -0.3125 5 0 C8.51761503 3.90846115 9.96574415 9.8016755 10 15 C7.75 17.9375 7.75 17.9375 5 20 C4.34 20.99 3.68 21.98 3 23 C3 21.68 3 20.36 3 19 C2.34 18.67 1.68 18.34 1 18 C0.59270772 15.67843403 0.25561323 13.3431213 0 11 C1.32 10.67 2.64 10.34 4 10 C4.33 7.69 4.66 5.38 5 3 C3.02 3 1.04 3 -1 3 C-0.67 2.01 -0.34 1.02 0 0 Z M2 14 C3 17 3 17 3 17 Z " fill="#6AAFCF" transform="translate(273,141)"/>
<path d="M0 0 C0.33 1.32 0.66 2.64 1 4 C-1.64 4 -4.28 4 -7 4 C-6.67 6.64 -6.34 9.28 -6 12 C-5.34 12 -4.68 12 -4 12 C-4 10.68 -4 9.36 -4 8 C-2.02 7.67 -0.04 7.34 2 7 C3.4783226 9.95664519 3.06032783 12.74229737 3 16 C2.67 16 2.34 16 2 16 C1.67 14.02 1.34 12.04 1 10 C0.01 10 -0.98 10 -2 10 C-0.09115308 14.54170996 -0.09115308 14.54170996 2 19 C0.68 19.33 -0.64 19.66 -2 20 C-1.67 21.32 -1.34 22.64 -1 24 C-4.59230671 20.90318387 -6.83597621 17.59573839 -8 13 C-8.22994162 9.64872318 -8.18212984 6.35253807 -8 3 C-5.36 3 -2.72 3 0 3 C0 2.01 0 1.02 0 0 Z " fill="#D88E84" transform="translate(356,319)"/>
<path d="M0 0 C0.66 0.33 1.32 0.66 2 1 C5.04838667 1.27632858 8.09654869 1.44658298 11.15234375 1.62109375 C14 2 14 2 17 4 C19.62531524 4.16713569 19.62531524 4.16713569 22 4 C21.67 4.99 21.34 5.98 21 7 C13.74 7 6.48 7 -1 7 C-0.67 5.68 -0.34 4.36 0 3 C0 2.01 0 1.02 0 0 Z " fill="#D83F36" transform="translate(136,322)"/>
<path d="M0 0 C0.66 0 1.32 0 2 0 C2.33 0.99 2.66 1.98 3 3 C3.99 3.33 4.98 3.66 6 4 C6 2.68 6 1.36 6 0 C6.66 0 7.32 0 8 0 C9.2834998 4.0911556 10.38021934 7.6908475 10 12 C9 13 9 13 5.4375 13.0625 C4.303125 13.041875 3.16875 13.02125 2 13 C0.54815522 8.46298506 -0.23509196 4.81938524 0 0 Z " fill="#9AB769" transform="translate(320,252)"/>
<path d="M0 0 C0.33 0 0.66 0 1 0 C2.36712849 9.4179963 1.66893651 18.5525582 1 28 C-0.4370809 28.05422947 -1.87475462 28.09289723 -3.3125 28.125 C-4.51326172 28.15980469 -4.51326172 28.15980469 -5.73828125 28.1953125 C-8 28 -8 28 -11 26 C-11 25.34 -11 24.68 -11 24 C-7.7 24 -4.4 24 -1 24 C-1.01160156 22.35128906 -1.02320313 20.70257813 -1.03515625 19.00390625 C-1.04453238 16.85677196 -1.05363277 14.70963645 -1.0625 12.5625 C-1.07087891 11.47388672 -1.07925781 10.38527344 -1.08789062 9.26367188 C-1.09111328 8.22919922 -1.09433594 7.19472656 -1.09765625 6.12890625 C-1.10289307 5.17056885 -1.10812988 4.21223145 -1.11352539 3.22485352 C-1 1 -1 1 0 0 Z " fill="#8FAE56" transform="translate(199,235)"/>
<path d="M0 0 C1.65 0.33 3.3 0.66 5 1 C4.51675181 6.15464734 1.81389239 9.81550319 -1 14 C-3.97 13.505 -3.97 13.505 -7 13 C-6.65986985 7.55791766 -3.29703472 4.06331802 0 0 Z " fill="#6DADC9" transform="translate(292,139)"/>
<path d="M0 0 C0.99 0.33 1.98 0.66 3 1 C3.33 10.9 3.66 20.8 4 31 C2.68 31.33 1.36 31.66 0 32 C0 21.44 0 10.88 0 0 Z " fill="#8FAD56" transform="translate(161,229)"/>
<path d="M0 0 C0.87527344 0.26425781 1.75054687 0.52851563 2.65234375 0.80078125 C5.0625 1.6875 5.0625 1.6875 8.0625 3.6875 C8.0625 5.0075 8.0625 6.3275 8.0625 7.6875 C4.54788462 8.9163865 2.37893613 8.44079849 -1.125 7.3125 C-2.00542969 7.03664062 -2.88585937 6.76078125 -3.79296875 6.4765625 C-5.9375 5.6875 -5.9375 5.6875 -6.9375 4.6875 C-6.97813832 3.02132885 -6.980221 1.35361905 -6.9375 -0.3125 C-4.16774056 -1.69737972 -2.91750599 -0.9039556 0 0 Z " fill="#6CB1CC" transform="translate(299.9375,168.3125)"/>
<path d="M0 0 C4.62 0 9.24 0 14 0 C12.68 0.99 11.36 1.98 10 3 C12.97 3.66 15.94 4.32 19 5 C19 5.33 19 5.66 19 6 C7.78 6 -3.44 6 -15 6 C-15 5.01 -15 4.02 -15 3 C-14.34 3 -13.68 3 -13 3 C-13 2.34 -13 1.68 -13 1 C-12.34 1 -11.68 1 -11 1 C-11 1.99 -11 2.98 -11 4 C-5.06 4 0.88 4 7 4 C7 3.34 7 2.68 7 2 C4.69 1.67 2.38 1.34 0 1 C0 0.67 0 0.34 0 0 Z " fill="#C4D0AF" transform="translate(179,258)"/>
<path d="M0 0 C1.65 0 3.3 0 5 0 C5 8.58 5 17.16 5 26 C1.62384888 21.49846517 1.62384888 21.49846517 1.26953125 18.06640625 C1.18896484 17.33486328 1.10839844 16.60332031 1.02539062 15.84960938 C0.92000977 14.71749023 0.92000977 14.71749023 0.8125 13.5625 C0.73064453 12.81162109 0.64878906 12.06074219 0.56445312 11.28710938 C0.16916821 7.51031153 -0.09827332 3.80242135 0 0 Z " fill="#8FAF54" transform="translate(345,227)"/>
<path d="M0 0 C1.4540625 0.0309375 1.4540625 0.0309375 2.9375 0.0625 C3.2675 0.7225 3.5975 1.3825 3.9375 2.0625 C5.96213255 2.71463292 5.96213255 2.71463292 7.9375 3.0625 C8.2675 4.7125 8.5975 6.3625 8.9375 8.0625 C7.6175 8.3925 6.2975 8.7225 4.9375 9.0625 C4.6075 8.4025 4.2775 7.7425 3.9375 7.0625 C3.6075 7.3925 3.2775 7.7225 2.9375 8.0625 C0.60452567 8.10342937 -1.72955225 8.10491723 -4.0625 8.0625 C-4.10491723 5.72955225 -4.10342937 3.39547433 -4.0625 1.0625 C-3.0625 0.0625 -3.0625 0.0625 0 0 Z " fill="#B5C58D" transform="translate(171.0625,233.9375)"/>
<path d="M0 0 C0.66 0.33 1.32 0.66 2 1 C2 2.32 2 3.64 2 5 C3.3929126 4.98428955 3.3929126 4.98428955 4.81396484 4.96826172 C8.2542569 4.93420796 11.69437027 4.90911507 15.13476562 4.89013672 C16.6247032 4.88006957 18.11462097 4.86641482 19.60449219 4.84912109 C21.74419028 4.82490347 23.88362753 4.81352436 26.0234375 4.8046875 C27.31169434 4.79421387 28.59995117 4.78374023 29.92724609 4.77294922 C33 5 33 5 35 7 C23.45 7 11.9 7 0 7 C-1 2 -1 2 0 0 Z " fill="#CB4A3F" transform="translate(128,358)"/>
<path d="M0 0 C1.26582219 3.86723631 1.1118765 7.73151262 1.0625 11.75 C1.05798828 12.44738281 1.05347656 13.14476562 1.04882812 13.86328125 C1.0371002 15.57555803 1.01916653 17.28779033 1 19 C0.34 18.67 -0.32 18.34 -1 18 C-1.4140625 15.49609375 -1.4140625 15.49609375 -1.625 12.4375 C-1.73714844 10.91962891 -1.73714844 10.91962891 -1.8515625 9.37109375 C-1.90054687 8.58863281 -1.94953125 7.80617187 -2 7 C-3.32 7.33 -4.64 7.66 -6 8 C-6 7.34 -6 6.68 -6 6 C-8.97 5.505 -8.97 5.505 -12 5 C-9.9330412 2.9330412 -8.69369158 2.35542451 -6 1.375 C-5.29875 1.11460937 -4.5975 0.85421875 -3.875 0.5859375 C-2 0 -2 0 0 0 Z " fill="#8FB151" transform="translate(344,230)"/>
<path d="M0 0 C1.98 0 3.96 0 6 0 C6.33 0.99 6.66 1.98 7 3 C7.99 3 8.98 3 10 3 C10 3.66 10 4.32 10 5 C11.32 5.66 12.64 6.32 14 7 C14 7.66 14 8.32 14 9 C11.5625 8.625 11.5625 8.625 9 8 C8.67 7.34 8.34 6.68 8 6 C7.34 6 6.68 6 6 6 C6 6.66 6 7.32 6 8 C4.02 8 2.04 8 0 8 C0 5.36 0 2.72 0 0 Z " fill="#C34848" transform="translate(133,341)"/>
<path d="M0 0 C3 1 3 1 4.38671875 3.28515625 C4.81597656 4.20167969 5.24523437 5.11820313 5.6875 6.0625 C6.34298828 7.44115234 6.34298828 7.44115234 7.01171875 8.84765625 C7.33785156 9.55792969 7.66398438 10.26820313 8 11 C9.98 10.67 11.96 10.34 14 10 C13.67 7.36 13.34 4.72 13 2 C15.76223278 4.76223278 15.57856291 7.20706617 16 11 C12.63824835 14.10315537 10.47353123 14.147075 6 14 C4.99515796 12.04414675 3.99626195 10.08523763 3 8.125 C2.1646875 6.48917969 2.1646875 6.48917969 1.3125 4.8203125 C0 2 0 2 0 0 Z " fill="#71ADC9" transform="translate(245,192)"/>
<path d="M0 0 C3.60389664 -0.11601004 7.20731467 -0.18718408 10.8125 -0.25 C11.83666016 -0.28351563 12.86082031 -0.31703125 13.91601562 -0.3515625 C14.89892578 -0.36445313 15.88183594 -0.37734375 16.89453125 -0.390625 C17.80050049 -0.41157227 18.70646973 -0.43251953 19.63989258 -0.45410156 C22 0 22 0 23.8190918 2.02441406 C24.2087915 2.67635742 24.59849121 3.32830078 25 4 C24.01 4.495 24.01 4.495 23 5 C23.33 5.66 23.66 6.32 24 7 C22.35 7 20.7 7 19 7 C19 6.34 19 5.68 19 5 C17.35 5 15.7 5 14 5 C14 4.34 14 3.68 14 3 C7.07 2.505 7.07 2.505 0 2 C0 1.34 0 0.68 0 0 Z " fill="#D54440" transform="translate(138,322)"/>
<path d="M0 0 C5.48918174 0.34681105 9.34731157 0.85259312 14 4 C14.99 4 15.98 4 17 4 C17.33 4.99 17.66 5.98 18 7 C20.50447516 8.21869929 20.50447516 8.21869929 23 9 C22.67 9.99 22.34 10.98 22 12 C14.66666667 8.33333333 7.33333333 4.66666667 0 1 C0 0.67 0 0.34 0 0 Z " fill="#E1A560" transform="translate(189,286)"/>
<path d="M0 0 C0.99 0 1.98 0 3 0 C3 0.66 3 1.32 3 2 C5.16874252 1.49396008 6.99967627 1.00016187 9 0 C8.67 1.32 8.34 2.64 8 4 C9.32 4.33 10.64 4.66 12 5 C9.8125 7.5625 9.8125 7.5625 7 10 C3.18384269 10 0.76932819 8.56419277 -2 6 C-2 5.34 -2 4.68 -2 4 C-1.01 3.67 -0.02 3.34 1 3 C1.33 3.99 1.66 4.98 2 6 C4.01508358 6.73323796 4.01508358 6.73323796 6 7 C5.34 6.38125 4.68 5.7625 4 5.125 C2 3 2 3 2 1 C1.34 0.67 0.68 0.34 0 0 Z " fill="#D57B72" transform="translate(141,343)"/>
<path d="M0 0 C-0.33 0.99 -0.66 1.98 -1 3 C-6.94 3 -12.88 3 -19 3 C-19 2.01 -19 1.02 -19 0 C-12.5510809 -1.31909709 -6.51244208 -0.69508823 0 0 Z " fill="#8BB157" transform="translate(187,259)"/>
<path d="M0 0 C3.75345656 0.71971619 6.86091969 2.33112202 10.25 4.0625 C11.32765625 4.61035156 12.4053125 5.15820312 13.515625 5.72265625 C14.74539062 6.35494141 14.74539062 6.35494141 16 7 C15.34 7.66 14.68 8.32 14 9 C13.01 9 12.02 9 11 9 C11 8.34 11 7.68 11 7 C10.01 7 9.02 7 8 7 C8 6.34 8 5.68 8 5 C6.35 5 4.7 5 3 5 C2.67 5.99 2.34 6.98 2 8 C0.4375 6.8125 0.4375 6.8125 -1 5 C-0.6875 2.3125 -0.6875 2.3125 0 0 Z " fill="#E99844" transform="translate(241,272)"/>
<path d="M0 0 C0.66 2.31 1.32 4.62 2 7 C3.65 7.33 5.3 7.66 7 8 C6.67 8.99 6.34 9.98 6 11 C-0.16356805 9.3341708 -5.48259656 6.12194714 -11 3 C-8.50907189 1.75453595 -7.58919267 2.2232422 -5 3 C-5 2.34 -5 1.68 -5 1 C-3 0 -3 0 0 0 Z " fill="#56AAD3" transform="translate(205,338)"/>
<path d="M0 0 C2.31 0 4.62 0 7 0 C7 2.64 7 5.28 7 8 C4.69 8 2.38 8 0 8 C0 5.36 0 2.72 0 0 Z " fill="#D37F7D" transform="translate(133,350)"/>
<path d="M0 0 C0.33 0.99 0.66 1.98 1 3 C-1 5 -1 5 -3.6015625 5.1953125 C-4.59929687 5.17210937 -5.59703125 5.14890625 -6.625 5.125 C-8.12933594 5.09792969 -8.12933594 5.09792969 -9.6640625 5.0703125 C-10.43492187 5.04710937 -11.20578125 5.02390625 -12 5 C-12 3.68 -12 2.36 -12 1 C-8.0186217 -0.3271261 -4.14954773 -0.06915913 0 0 Z " fill="#B0C385" transform="translate(366,239)"/>
<path d="M0 0 C1.4540625 0.0309375 1.4540625 0.0309375 2.9375 0.0625 C2.9375 2.7025 2.9375 5.3425 2.9375 8.0625 C0.6275 8.0625 -1.6825 8.0625 -4.0625 8.0625 C-4.10491723 5.72955225 -4.10342937 3.39547433 -4.0625 1.0625 C-3.0625 0.0625 -3.0625 0.0625 0 0 Z " fill="#ACBE7F" transform="translate(171.0625,245.9375)"/>
<path d="M0 0 C0.33 0.66 0.66 1.32 1 2 C3.64 2 6.28 2 9 2 C9.93065133 4.60582371 10.14917407 5.64198224 9.0625 8.25 C8.711875 8.8275 8.36125 9.405 8 10 C8 8.68 8 7.36 8 6 C7.01 6 6.02 6 5 6 C4.87625 7.134375 4.7525 8.26875 4.625 9.4375 C4.41875 10.613125 4.2125 11.78875 4 13 C3.01 13.495 3.01 13.495 2 14 C2.33 12.02 2.66 10.04 3 8 C2.01 7.67 1.02 7.34 0 7 C0.33 6.01 0.66 5.02 1 4 C0.61067144 1.85744207 0.61067144 1.85744207 0 0 Z " fill="#D89088" transform="translate(388,320)"/>
<path d="M0 0 C1.98 0.66 3.96 1.32 6 2 C5 5 5 5 3.32592773 6.07495117 C2.61895752 6.39439697 1.9119873 6.71384277 1.18359375 7.04296875 C0.03793945 7.56987305 0.03793945 7.56987305 -1.13085938 8.10742188 C-2.33452148 8.64206055 -2.33452148 8.64206055 -3.5625 9.1875 C-4.36880859 9.55552734 -5.17511719 9.92355469 -6.00585938 10.30273438 C-7.99986298 11.21124489 -9.99776958 12.10980336 -12 13 C-12 12.01 -12 11.02 -12 10 C-11.01 10 -10.02 10 -9 10 C-9 9.34 -9 8.68 -9 8 C-5.62902617 6.50178941 -3.79557881 6 0 6 C0 4.02 0 2.04 0 0 Z " fill="#D18C70" transform="translate(332,277)"/>
<path d="M0 0 C0.33 0.66 0.66 1.32 1 2 C3.02463255 2.65213292 3.02463255 2.65213292 5 3 C4 6 4 6 1.75 7.25 C-1.28236729 8.07700926 -3.01120724 7.85394079 -6 7 C-6 5.35 -6 3.7 -6 2 C-4.02 1.34 -2.04 0.68 0 0 Z " fill="#69AFD2" transform="translate(297,155)"/>
<path d="M0 0 C0 13.86 0 27.72 0 42 C-0.33 42 -0.66 42 -1 42 C-1 29.13 -1 16.26 -1 3 C-2.98 3 -4.96 3 -7 3 C-4.74624683 0.74624683 -3.20799182 0 0 0 Z " fill="#6C8E65" transform="translate(297,208)"/>
<path d="M0 0 C-0.32773371 3.03153686 -0.64134897 4.61573103 -2.75 6.875 C-5.59474935 8.29737468 -7.01616624 7.91172698 -10 7 C-7.6551217 1.76911763 -5.98347266 -0.48514643 0 0 Z " fill="#ADBF88" transform="translate(362,229)"/>
<path d="M0 0 C0.66 0.33 1.32 0.66 2 1 C1.13375 1.50660156 1.13375 1.50660156 0.25 2.0234375 C-0.4925 2.46945312 -1.235 2.91546875 -2 3.375 C-2.7425 3.81585938 -3.485 4.25671875 -4.25 4.7109375 C-4.8275 5.13632812 -5.405 5.56171875 -6 6 C-6 6.66 -6 7.32 -6 8 C-3.36 8.99 -0.72 9.98 2 11 C0.296875 12.1484375 0.296875 12.1484375 -2 13 C-4.359375 12.1015625 -4.359375 12.1015625 -6.75 10.625 C-7.54921875 10.14289063 -8.3484375 9.66078125 -9.171875 9.1640625 C-9.77515625 8.77992188 -10.3784375 8.39578125 -11 8 C-10 5 -10 5 -8.125 3.8125 C-6 3 -6 3 -3 3 C-3 2.34 -3 1.68 -3 1 C-2.01 0.67 -1.02 0.34 0 0 Z " fill="#E1AE70" transform="translate(189,273)"/>
<path d="M0 0 C0.33 0 0.66 0 1 0 C1.33 8.25 1.66 16.5 2 25 C0.35 25.33 -1.3 25.66 -3 26 C-3 23.03 -3 20.06 -3 17 C-2.34 17.66 -1.68 18.32 -1 19 C-0.67 12.73 -0.34 6.46 0 0 Z " fill="#A2B87B" transform="translate(350,232)"/>
<path d="M0 0 C0.33 0 0.66 0 1 0 C1 9.57 1 19.14 1 29 C4.3 29 7.6 29 11 29 C11 29.33 11 29.66 11 30 C8.03 30 5.06 30 2 30 C2 30.66 2 31.32 2 32 C0.35 32.66 -1.3 33.32 -3 34 C-2.67 33.01 -2.34 32.02 -2 31 C-1.34 30.67 -0.68 30.34 0 30 C0 20.1 0 10.2 0 0 Z " fill="#ADBF86" transform="translate(164,229)"/>
<path d="M0 0 C2.97 0.33 5.94 0.66 9 1 C9 1.66 9 2.32 9 3 C10.65 2.67 12.3 2.34 14 2 C14 2.66 14 3.32 14 4 C15.32 4.33 16.64 4.66 18 5 C17.67 5.66 17.34 6.32 17 7 C12.10160332 7.34884724 9.34104063 6.46792622 5.125 4 C4.15820312 3.443125 3.19140625 2.88625 2.1953125 2.3125 C1.47085938 1.879375 0.74640625 1.44625 0 1 C0 0.67 0 0.34 0 0 Z " fill="#E2A364" transform="translate(244,314)"/>
<path d="M0 0 C2.475 0.99 2.475 0.99 5 2 C5 2.66 5 3.32 5 4 C6.32 4.66 7.64 5.32 9 6 C8.67 6.99 8.34 7.98 8 9 C4.17902761 8.46930939 1.93828597 7.50298434 -1 5 C-0.67 3.35 -0.34 1.7 0 0 Z " fill="#ACBE7E" transform="translate(355,246)"/>
<path d="M0 0 C1.65 0 3.3 0 5 0 C5 1.32 5 2.64 5 4 C7.31 4.33 9.62 4.66 12 5 C12 5.66 12 6.32 12 7 C9.36 6.67 6.72 6.34 4 6 C4 5.01 4 4.02 4 3 C3.01 3 2.02 3 1 3 C0.67 3.66 0.34 4.32 0 5 C-5.28 5 -10.56 5 -16 5 C-15.67 4.34 -15.34 3.68 -15 3 C-8.07 3.495 -8.07 3.495 -1 4 C-0.67 2.68 -0.34 1.36 0 0 Z " fill="#B1C78F" transform="translate(189,215)"/>
<path d="M0 0 C2.32602868 3.48904301 3.41117582 7.03390006 4.625 11 C4.85445313 11.72445312 5.08390625 12.44890625 5.3203125 13.1953125 C6.26068056 16.22911898 7 18.80543588 7 22 C6.34 22 5.68 22 5 22 C4.18372554 19.60539412 3.37188355 17.20943474 2.5625 14.8125 C2.33240234 14.13896484 2.10230469 13.46542969 1.86523438 12.77148438 C-0.52276972 5.67668959 -0.52276972 5.67668959 -1 2 C-0.67 1.34 -0.34 0.68 0 0 Z " fill="#6CAFCA" transform="translate(285,162)"/>
<path d="M0 0 C1.65 0 3.3 0 5 0 C6.42944945 2.35438733 7.08661261 3.48032433 6.625 6.25 C6.41875 6.8275 6.2125 7.405 6 8 C3.03 7.505 3.03 7.505 0 7 C0 4.69 0 2.38 0 0 Z " fill="#A5BF74" transform="translate(184,246)"/>
<path d="M0 0 C1.98 0.99 1.98 0.99 4 2 C3.01 2.495 3.01 2.495 2 3 C2 15.54 2 28.08 2 41 C1.34 41 0.68 41 0 41 C0 27.47 0 13.94 0 0 Z " fill="#669DB4" transform="translate(177,291)"/>
<path d="M0 0 C2.0625 1.75 2.0625 1.75 4 4 C3.67 5.32 3.34 6.64 3 8 C-4.59 8 -12.18 8 -20 8 C-20 6.35 -20 4.7 -20 3 C-19.67 3.99 -19.34 4.98 -19 6 C-12.4 6.33 -5.8 6.66 1 7 C0.67 4.69 0.34 2.38 0 0 Z " fill="#D3938F" transform="translate(381,359)"/>
<path d="M0 0 C0.99 0 1.98 0 3 0 C3.22893297 3.03336186 3.36475845 5.97465051 3 9 C1 11.0625 1 11.0625 -1 12 C-1.66 11.67 -2.32 11.34 -3 11 C-2.69078116 9.54096742 -2.37751201 8.08279278 -2.0625 6.625 C-1.88847656 5.81289063 -1.71445312 5.00078125 -1.53515625 4.1640625 C-1 2 -1 2 0 0 Z " fill="#C85148" transform="translate(393,326)"/>
<path d="M0 0 C0 1.32 0 2.64 0 4 C0.66 4.33 1.32 4.66 2 5 C1.67 5.99 1.34 6.98 1 8 C-2.88862987 6.73882275 -4.89375599 5.54735833 -7 2 C-7 1.34 -7 0.68 -7 0 C-4.3333581 -1.33332095 -2.83319697 -0.67102033 0 0 Z " fill="#CE675E" transform="translate(361,339)"/>
<path d="M0 0 C1.16660156 0.04833984 2.33320313 0.09667969 3.53515625 0.14648438 C5.37013672 0.2305957 5.37013672 0.2305957 7.2421875 0.31640625 C8.47324219 0.36861328 9.70429688 0.42082031 10.97265625 0.47460938 C14.02107338 0.60458065 17.069187 0.73955644 20.1171875 0.87890625 C20.1171875 1.20890625 20.1171875 1.53890625 20.1171875 1.87890625 C18.21646484 1.95238281 18.21646484 1.95238281 16.27734375 2.02734375 C14.57810654 2.10244816 12.87888874 2.17799257 11.1796875 2.25390625 C9.93348633 2.3003125 9.93348633 2.3003125 8.66210938 2.34765625 C2.93471381 2.61508328 -2.31639721 3.49713212 -7.8828125 4.87890625 C-7.8828125 3.55890625 -7.8828125 2.23890625 -7.8828125 0.87890625 C-5.13550007 -0.49474996 -3.06614186 -0.13395765 0 0 Z " fill="#5A9CBE" transform="translate(261.8828125,181.12109375)"/>
<path d="M0 0 C6.75 0.75 6.75 0.75 9 3 C11.32275177 3.40047444 13.65739357 3.7397104 16 4 C16.33 5.65 16.66 7.3 17 9 C10.83643195 7.3341708 5.51740344 4.12194714 0 1 C0 0.67 0 0.34 0 0 Z " fill="#65ADCC" transform="translate(212,349)"/>
<path d="M0 0 C1.66611905 -0.042721 3.33382885 -0.04063832 5 0 C5.33 0.33 5.66 0.66 6 1 C5.4 7.6 5.4 7.6 3 10 C3 9.34 3 8.68 3 8 C2.34 8 1.68 8 1 8 C1 6.35 1 4.7 1 3 C0.34 3 -0.32 3 -1 3 C-0.67 2.01 -0.34 1.02 0 0 Z " fill="#3F9CCD" transform="translate(273,143)"/>
<path d="M0 0 C0.66 0.33 1.32 0.66 2 1 C2.99 1 3.98 1 5 1 C3.3125 3 3.3125 3 1 5 C-1.625 5.125 -1.625 5.125 -4 5 C-4.66 5.66 -5.32 6.32 -6 7 C-6.99 7 -7.98 7 -9 7 C-9 7.66 -9 8.32 -9 9 C-10.65 8.67 -12.3 8.34 -14 8 C-11.56163291 5.56163291 -9.07619256 4.36908302 -6 2.8125 C-4.9275 2.26207031 -3.855 1.71164062 -2.75 1.14453125 C-1.38875 0.57798828 -1.38875 0.57798828 0 0 Z " fill="#D27755" transform="translate(273,272)"/>
<path d="M0 0 C-2.37191584 1.29761299 -4.74724614 2.58816317 -7.125 3.875 C-8.12273437 4.42220703 -8.12273437 4.42220703 -9.140625 4.98046875 C-13.01538929 7.06980244 -16.75687369 8.74424611 -21 10 C-20.34 8.68 -19.68 7.36 -19 6 C-18.01 6.33 -17.02 6.66 -16 7 C-15.67 6.01 -15.34 5.02 -15 4 C-14.01 4 -13.02 4 -12 4 C-11.67 3.34 -11.34 2.68 -11 2 C-10.01 2 -9.02 2 -8 2 C-8 1.34 -8 0.68 -8 0 C-4.90645403 -0.99435406 -3.09720845 -0.87840996 0 0 Z " fill="#6F93B3" transform="translate(332,336)"/>
<path d="M0 0 C0.66 0 1.32 0 2 0 C2.5625 1.9375 2.5625 1.9375 3 4 C2.67 4.33 2.34 4.66 2 5 C1.84213692 6.85174706 1.74892644 8.7090911 1.68359375 10.56640625 C1.64169922 11.69111328 1.59980469 12.81582031 1.55664062 13.97460938 C1.51732422 15.15861328 1.47800781 16.34261719 1.4375 17.5625 C1.39431641 18.75037109 1.35113281 19.93824219 1.30664062 21.16210938 C1.20016454 24.10794784 1.09815159 27.0538743 1 30 C1.66 30.33 2.32 30.66 3 31 C2.01 31.33 1.02 31.66 0 32 C0 21.44 0 10.88 0 0 Z " fill="#DC6123" transform="translate(258,282)"/>
<path d="M0 0 C0.99 0.33 1.98 0.66 3 1 C3.33 1.99 3.66 2.98 4 4 C7.00847418 5.22520264 7.00847418 5.22520264 10 6 C10 8.31 10 10.62 10 13 C9.67 13 9.34 13 9 13 C9 11.35 9 9.7 9 8 C7.5422647 7.664061 6.08378894 7.33133376 4.625 7 C3.81289062 6.814375 3.00078125 6.62875 2.1640625 6.4375 C0.04125049 5.93394761 0.04125049 5.93394761 -2 6 C-2 4.35 -2 2.7 -2 1 C-1.34 0.67 -0.68 0.34 0 0 Z " fill="#C77672" transform="translate(157,317)"/>
<path d="M0 0 C1.32 0.66 2.64 1.32 4 2 C2.21385682 3.03046722 0.42089982 4.04913236 -1.375 5.0625 C-2.87160156 5.91521484 -2.87160156 5.91521484 -4.3984375 6.78515625 C-5.25695312 7.18605469 -6.11546875 7.58695312 -7 8 C-7.66 7.67 -8.32 7.34 -9 7 C-9 5.35 -9 3.7 -9 2 C-6.03 2 -3.06 2 0 2 C0 1.34 0 0.68 0 0 Z " fill="#D78262" transform="translate(315,289)"/>
<path d="M0 0 C-0.57344937 2.86724686 -0.8614515 3.8614515 -3 6 C-3 5.34 -3 4.68 -3 4 C-3.99 4.495 -3.99 4.495 -5 5 C-5.33 5.99 -5.66 6.98 -6 8 C-8.06640625 8.73046875 -8.06640625 8.73046875 -10.5625 9.1875 C-11.38878906 9.34605469 -12.21507812 9.50460938 -13.06640625 9.66796875 C-13.70449219 9.77753906 -14.34257812 9.88710937 -15 10 C-12.90553337 7.86721995 -10.75210238 5.84065076 -8.5 3.875 C-7.9121875 3.35679687 -7.324375 2.83859375 -6.71875 2.3046875 C-4.55140674 0.65947693 -2.72926591 0 0 0 Z " fill="#67ABCC" transform="translate(274,146)"/>
<path d="M0 0 C0.99 0 1.98 0 3 0 C3 0.99 3 1.98 3 3 C2.34 3 1.68 3 1 3 C1 12.9 1 22.8 1 33 C0.67 33 0.34 33 0 33 C0 22.11 0 11.22 0 0 Z " fill="#91AF52" transform="translate(220,211)"/>
<path d="M0 0 C0 0.66 0 1.32 0 2 C-1.98 2.66 -3.96 3.32 -6 4 C-6 4.66 -6 5.32 -6 6 C-7.65 6 -9.3 6 -11 6 C-11 6.66 -11 7.32 -11 8 C-14.47307692 10.10865385 -14.47307692 10.10865385 -17.140625 9.55859375 C-18.06101563 9.28208984 -18.06101563 9.28208984 -19 9 C-16.2118978 7.4933028 -13.41896042 5.99580196 -10.625 4.5 C-9.8309375 4.07074219 -9.036875 3.64148438 -8.21875 3.19921875 C-7.45820313 2.79316406 -6.69765625 2.38710938 -5.9140625 1.96875 C-4.8614624 1.40317383 -4.8614624 1.40317383 -3.78759766 0.82617188 C-2 0 -2 0 0 0 Z " fill="#E4B77C" transform="translate(210,263)"/>
<path d="M0 0 C3.63 0 7.26 0 11 0 C11 1.32 11 2.64 11 4 C11.99 4.33 12.98 4.66 14 5 C14 5.66 14 6.32 14 7 C9.0276578 5.50829734 4.58154261 3.39542583 0 1 C0 0.67 0 0.34 0 0 Z " fill="#68ADCE" transform="translate(180,333)"/>
<path d="M0 0 C0.66 0.99 1.32 1.98 2 3 C1.67 3.99 1.34 4.98 1 6 C1 5.34 1 4.68 1 4 C-0.32 4 -1.64 4 -3 4 C-3 4.66 -3 5.32 -3 6 C-7.455 6.495 -7.455 6.495 -12 7 C-10.53092999 4.06185997 -8.40552194 3.6713774 -5.4375 2.375 C-4.42558594 1.92898438 -3.41367187 1.48296875 -2.37109375 1.0234375 C-1.58863281 0.68570312 -0.80617188 0.34796875 0 0 Z " fill="#5381A7" transform="translate(297,312)"/>
<path d="M0 0 C4.35970831 1.34849837 8.31341438 3.04907846 12.375 5.125 C13.43460938 5.66382813 14.49421875 6.20265625 15.5859375 6.7578125 C16.38257813 7.16773438 17.17921875 7.57765625 18 8 C17.01 8.66 16.02 9.32 15 10 C14.34 9.67 13.68 9.34 13 9 C13 8.34 13 7.68 13 7 C12.34 6.9175 11.68 6.835 11 6.75 C7.00960837 5.75240209 3.61450357 3.92833317 0 2 C0 1.34 0 0.68 0 0 Z " fill="#B1C983" transform="translate(231,214)"/>
<path d="M0 0 C1.65 0 3.3 0 5 0 C2.61664713 2.67438936 0.12963852 4.15158012 -3.0625 5.75 C-4.37927734 6.42289062 -4.37927734 6.42289062 -5.72265625 7.109375 C-6.47417969 7.40328125 -7.22570312 7.6971875 -8 8 C-8.66 7.67 -9.32 7.34 -10 7 C-10 6.34 -10 5.68 -10 5 C-9.34 5 -8.68 5 -8 5 C-8 4.34 -8 3.68 -8 3 C-5.36 2.34 -2.72 1.68 0 1 C0 0.67 0 0.34 0 0 Z " fill="#D58B6F" transform="translate(273,311)"/>
<path d="M0 0 C-0.33 2.31 -0.66 4.62 -1 7 C-4.875 5.25 -4.875 5.25 -6 3 C-6.99 2.67 -7.98 2.34 -9 2 C-8.67 1.01 -8.34 0.02 -8 -1 C-4.71293093 -2.47351372 -2.99288606 -1.8171094 0 0 Z M-4 1 C-3 3 -3 3 -3 3 Z M-3 4 C-2 6 -2 6 -2 6 Z " fill="#80B9D1" transform="translate(239,169)"/>
<path d="M0 0 C3.3 0 6.6 0 10 0 C9.67 0.99 9.34 1.98 9 3 C9.66 3.33 10.32 3.66 11 4 C9.741875 4.04125 8.48375 4.0825 7.1875 4.125 C6.47980469 4.14820313 5.77210938 4.17140625 5.04296875 4.1953125 C3 4 3 4 0 2 C0 1.34 0 0.68 0 0 Z " fill="#87A450" transform="translate(188,259)"/>
<path d="M0 0 C3.38891322 0.68886787 6.18011613 1.98716486 9.25 3.5625 C10.14203125 4.01753906 11.0340625 4.47257812 11.953125 4.94140625 C12.96632813 5.46541016 12.96632813 5.46541016 14 6 C13.67 6.66 13.34 7.32 13 8 C11.02 8 9.04 8 7 8 C6.67 7.01 6.34 6.02 6 5 C3.99983534 3.79117904 3.99983534 3.79117904 2 3 C2 2.34 2 1.68 2 1 C1.34 0.67 0.68 0.34 0 0 Z " fill="#4F9DC5" transform="translate(245,326)"/>
<path d="M0 0 C1.0725 0.309375 2.145 0.61875 3.25 0.9375 C5.82866222 1.66812096 8.39512102 2.37482904 11 3 C11 3.66 11 4.32 11 5 C12.32 5 13.64 5 15 5 C15 5.99 15 6.98 15 8 C11.34435091 7.31238981 8.48132728 5.74550455 5.25 3.9375 C4.26515625 3.38964844 3.2803125 2.84179688 2.265625 2.27734375 C1.51796875 1.85582031 0.7703125 1.43429687 0 1 C0 0.67 0 0.34 0 0 Z " fill="#E4A86A" transform="translate(229,306)"/>
<path d="M0 0 C5.47932789 1.54545146 10.11429181 4.15543212 15 7 C15 7.33 15 7.66 15 8 C13.35 8 11.7 8 10 8 C9.67 7.01 9.34 6.02 9 5 C8.071875 5.061875 7.14375 5.12375 6.1875 5.1875 C3 5 3 5 1.125 3.625 C0 2 0 2 0 0 Z " fill="#E3AA6C" transform="translate(226,264)"/>
<path d="M0 0 C2.6664882 -0.21620175 4.44004321 -0.30894168 6.8125 1 C8.73618446 4.23988962 8.18282384 7.2825819 8 11 C7.01 11 6.02 11 5 11 C5 8.36 5 5.72 5 3 C2.525 2.01 2.525 2.01 0 1 C0 0.67 0 0.34 0 0 Z " fill="#D4776E" transform="translate(363,347)"/>
<path d="M0 0 C-1.0007622 2.55570992 -1.68423699 3.79700949 -4.0234375 5.30078125 C-4.79945313 5.63464844 -5.57546875 5.96851563 -6.375 6.3125 C-7.14585937 6.65925781 -7.91671875 7.00601562 -8.7109375 7.36328125 C-11.2520823 8.07011845 -12.54499381 7.86878073 -15 7 C-12.87767021 5.82823482 -10.75242209 4.66245215 -8.625 3.5 C-7.72007812 2.99919922 -7.72007812 2.99919922 -6.796875 2.48828125 C-2.2265625 0 -2.2265625 0 0 0 Z " fill="#6288A6" transform="translate(331,295)"/>
<path d="M0 0 C1.67542976 0.28604898 3.34385343 0.61781233 5 1 C5.33 2.65 5.66 4.3 6 6 C3.69 6 1.38 6 -1 6 C-1.042721 4.33388095 -1.04063832 2.66617115 -1 1 C-0.67 0.67 -0.34 0.34 0 0 Z " fill="#DE483A" transform="translate(375,359)"/>
<path d="M0 0 C1.65 0.99 3.3 1.98 5 3 C4.34 4.65 3.68 6.3 3 8 C2.34 8 1.68 8 1 8 C0.67 8.66 0.34 9.32 0 10 C-0.185625 9.071875 -0.185625 9.071875 -0.375 8.125 C-0.87197356 5.80879168 -0.87197356 5.80879168 -3 4 C-2.01 2.68 -1.02 1.36 0 0 Z " fill="#D78279" transform="translate(389,334)"/>
<path d="M0 0 C1.32 0.66 2.64 1.32 4 2 C-1.625 5 -1.625 5 -5 5 C-5 5.66 -5 6.32 -5 7 C-6.32 7.33 -7.64 7.66 -9 8 C-8.67 6.68 -8.34 5.36 -8 4 C-7.01 4 -6.02 4 -5 4 C-5 3.34 -5 2.68 -5 2 C-3.35 2 -1.7 2 0 2 C0 1.34 0 0.68 0 0 Z " fill="#749B6D" transform="translate(270,260)"/>
<path d="M0 0 C2.25 -0.25 2.25 -0.25 5 0 C7.0625 1.875 7.0625 1.875 9 4 C11.13309192 5.23512079 11.13309192 5.23512079 13 6 C10.34501768 7.0169313 9.30844625 7.13022151 6.640625 6.00390625 C5.85171875 5.52824219 5.0628125 5.05257813 4.25 4.5625 C3.45078125 4.08941406 2.6515625 3.61632812 1.828125 3.12890625 C1.22484375 2.75636719 0.6215625 2.38382812 0 2 C0 1.34 0 0.68 0 0 Z " fill="#6CACC9" transform="translate(239,362)"/>
<path d="M0 0 C4.62 2.31 9.24 4.62 14 7 C14 7.33 14 7.66 14 8 C11.69 8 9.38 8 7 8 C6.67 6.68 6.34 5.36 6 4 C3.03 3.505 3.03 3.505 0 3 C0 2.01 0 1.02 0 0 Z " fill="#78B7CF" transform="translate(229,317)"/>
<path d="M0 0 C0.33 0.66 0.66 1.32 1 2 C0.34 2 -0.32 2 -1 2 C-1.33 2.99 -1.66 3.98 -2 5 C-3.32 5 -4.64 5 -6 5 C-6 5.66 -6 6.32 -6 7 C-7.98 7 -9.96 7 -12 7 C-10.53092999 4.06185997 -8.40552194 3.6713774 -5.4375 2.375 C-4.42558594 1.92898438 -3.41367187 1.48296875 -2.37109375 1.0234375 C-1.58863281 0.68570312 -0.80617188 0.34796875 0 0 Z " fill="#D9896F" transform="translate(287,265)"/>
<path d="M0 0 C1.65 0 3.3 0 5 0 C5 1.98 5 3.96 5 6 C3.35 6 1.7 6 0 6 C0 4.02 0 2.04 0 0 Z " fill="#94AF58" transform="translate(176,247)"/>
<path d="M0 0 C0.721875 0.350625 1.44375 0.70125 2.1875 1.0625 C6.32100718 2.44033573 8.9721948 1.34260173 13 0 C13 2 13 2 11.4375 3.625 C8.15951615 5.47411909 5.70570539 5.2744967 2 5 C1.34 4.67 0.68 4.34 0 4 C0 2.68 0 1.36 0 0 Z " fill="#97B472" transform="translate(251,224)"/>
<path d="M0 0 C0.144375 0.61875 0.28875 1.2375 0.4375 1.875 C1.35940679 5.35775899 1.84843875 5.89895917 5 8 C4.34 8 3.68 8 3 8 C2.67 9.32 2.34 10.64 2 12 C1.34 12 0.68 12 0 12 C-2.21538462 4.61538462 -2.21538462 4.61538462 -1.125 1.5 C-0.75375 1.005 -0.3825 0.51 0 0 Z " fill="#64ABCA" transform="translate(229,170)"/>
<path d="M0 0 C0.66 0.33 1.32 0.66 2 1 C0.07423885 3.43929746 -1.80090595 5.80090595 -4 8 C-6.475 7.01 -6.475 7.01 -9 6 C-3.30379747 1.25316456 -3.30379747 1.25316456 0 0 Z " fill="#7AA573" transform="translate(282,214)"/>
<path d="M0 0 C0.33 2.64 0.66 5.28 1 8 C0.34 7.34 -0.32 6.68 -1 6 C-2.32 6 -3.64 6 -5 6 C-5 3 -5 3 -3.625 1.3125 C-2 0 -2 0 0 0 Z " fill="#4FA2CA" transform="translate(284,156)"/>
<path d="M0 0 C4.23429756 1.31061591 8.07407404 2.94356259 12 5 C12 5.33 12 5.66 12 6 C9.69 6 7.38 6 5 6 C5 5.34 5 4.68 5 4 C2.525 3.01 2.525 3.01 0 2 C0 1.34 0 0.68 0 0 Z " fill="#D48B6E" transform="translate(302,261)"/>
<path d="M0 0 C0.66 0.99 1.32 1.98 2 3 C3.22880216 4.2941742 3.22880216 4.2941742 6 6 C0.36529617 6.5497272 -2.38987758 4.95047835 -7 2 C-7 1.67 -7 1.34 -7 1 C-5.5459375 1.0309375 -5.5459375 1.0309375 -4.0625 1.0625 C-1.12534105 1.35618499 -1.12534105 1.35618499 0 0 Z " fill="#9DBA78" transform="translate(255,263)"/>
<path d="M0 0 C0.33 0 0.66 0 1 0 C1.042721 1.66611905 1.04063832 3.33382885 1 5 C0 6 0 6 -3.5625 6.0625 C-4.696875 6.041875 -5.83125 6.02125 -7 6 C-7 5.01 -7 4.02 -7 3 C-5.5459375 2.814375 -5.5459375 2.814375 -4.0625 2.625 C-2.5465625 2.315625 -2.5465625 2.315625 -1 2 C-0.67 1.34 -0.34 0.68 0 0 Z " fill="#A7BD7D" transform="translate(329,259)"/>
<path d="M0 0 C1.98 1.65 3.96 3.3 6 5 C5.67 6.32 5.34 7.64 5 9 C3.68 9 2.36 9 1 9 C1.33 7.35 1.66 5.7 2 4 C1.34 4 0.68 4 0 4 C0 2.68 0 1.36 0 0 Z " fill="#5DAACE" transform="translate(233,172)"/>
<path d="M0 0 C1.27445454 0.42683632 2.54445882 0.86697202 3.8125 1.3125 C4.52019531 1.55613281 5.22789062 1.79976563 5.95703125 2.05078125 C8 3 8 3 11 6 C8.03 5.67 5.06 5.34 2 5 C1.34 3.35 0.68 1.7 0 0 Z " fill="#75B2CF" transform="translate(207,306)"/>
<path d="M0 0 C4.19360449 0.67097672 7.40334352 2.8558394 11 5 C10.34 5.66 9.68 6.32 9 7 C7.68 6.34 6.36 5.68 5 5 C5 4.34 5 3.68 5 3 C3.35 2.67 1.7 2.34 0 2 C0 1.34 0 0.68 0 0 Z " fill="#D4876B" transform="translate(315,268)"/>
<path d="M0 0 C1.1875 2.0625 1.1875 2.0625 2 4 C-3.41538462 4.36923077 -3.41538462 4.36923077 -6.375 2.5 C-6.91125 2.005 -7.4475 1.51 -8 1 C-3.375 -1.125 -3.375 -1.125 0 0 Z " fill="#48853A" transform="translate(272,257)"/>
<path d="M0 0 C1.32 0.33 2.64 0.66 4 1 C4.33 2.65 4.66 4.3 5 6 C3.68 6.33 2.36 6.66 1 7 C0.67 4.69 0.34 2.38 0 0 Z " fill="#98B564" transform="translate(175,236)"/>
<path d="M0 0 C1.85776765 3.13498292 2.20140476 5.37471432 2 9 C2.66 9 3.32 9 4 9 C4 10.65 4 12.3 4 14 C1.0555975 12.52779875 0.33951331 10.99795835 -1 8 C-0.95880112 5.21907563 -0.51319795 2.75260716 0 0 Z " fill="#499CC1" transform="translate(272,150)"/>
<path d="M0 0 C0.78375 0.04125 1.5675 0.0825 2.375 0.125 C-1.25 6 -1.25 6 -4.625 7.125 C-4.75 4.75 -4.75 4.75 -4.625 2.125 C-2.625 0.125 -2.625 0.125 0 0 Z " fill="#C9625B" transform="translate(366.625,357.875)"/>
<path d="M0 0 C1.98 0 3.96 0 6 0 C6.66 1.32 7.32 2.64 8 4 C7.01 4.495 7.01 4.495 6 5 C6 4.34 6 3.68 6 3 C4.35 2.67 2.7 2.34 1 2 C1 3.98 1 5.96 1 8 C0.67 8 0.34 8 0 8 C0 5.36 0 2.72 0 0 Z " fill="#D79692" transform="translate(133,341)"/>
<path d="M0 0 C-1.15173355 2.46800047 -2.04783565 4.04783565 -4 6 C-7.125 5.625 -7.125 5.625 -10 5 C-3.63636364 0 -3.63636364 0 0 0 Z " fill="#547FA5" transform="translate(283,320)"/>
<path d="M0 0 C3.7910119 1.44950455 7.3874638 3.15172566 11 5 C10.34 5.66 9.68 6.32 9 7 C8.01 7 7.02 7 6 7 C6 6.34 6 5.68 6 5 C5.01 5 4.02 5 3 5 C1.3125 3.625 1.3125 3.625 0 2 C0 1.34 0 0.68 0 0 Z " fill="#E2AD72" transform="translate(246,274)"/>
<path d="M0 0 C0.86625 0.391875 1.7325 0.78375 2.625 1.1875 C2.295 1.8475 1.965 2.5075 1.625 3.1875 C0.51125 3.166875 -0.6025 3.14625 -1.75 3.125 C-5.20715921 2.92369282 -5.20715921 2.92369282 -7.375 4.1875 C-8.035 3.5275 -8.695 2.8675 -9.375 2.1875 C-4.20576923 -1.0125 -4.20576923 -1.0125 0 0 Z " fill="#E2AC6D" transform="translate(219.375,259.8125)"/>
<path d="M0 0 C1.65 0 3.3 0 5 0 C5.36923077 4.55384615 5.36923077 4.55384615 3.5 6.8125 C3.005 7.204375 2.51 7.59625 2 8 C-0.1519437 4.77208445 -0.20086443 3.71599191 0 0 Z " fill="#9AB56F" transform="translate(345,227)"/>
<path d="M0 0 C0.66 0.99 1.32 1.98 2 3 C4.56282742 3.72965366 4.56282742 3.72965366 7 4 C7 4.99 7 5.98 7 7 C3.21213403 6.4739075 0.82847776 5.61896089 -2 3 C-2 2.34 -2 1.68 -2 1 C-1.34 0.67 -0.68 0.34 0 0 Z " fill="#D08181" transform="translate(141,346)"/>
<path d="M0 0 C-1.32 1.65 -2.64 3.3 -4 5 C-5.98 4.34 -7.96 3.68 -10 3 C-6.68152292 -0.06320961 -4.44849969 -0.3033068 0 0 Z " fill="#3F6E9B" transform="translate(320,303)"/>
<path d="M0 0 C1.98 0.495 1.98 0.495 4 1 C3.34 2.98 2.68 4.96 2 7 C1.01 7 0.02 7 -1 7 C-0.67 4.69 -0.34 2.38 0 0 Z " fill="#4BA3C7" transform="translate(292,141)"/>
<path d="M0 0 C0.33 0.99 0.66 1.98 1 3 C1.66 3.33 2.32 3.66 3 4 C0.64561267 5.42944945 -0.48032433 6.08661261 -3.25 5.625 C-3.8275 5.41875 -4.405 5.2125 -5 5 C-5 4.34 -5 3.68 -5 3 C-3.35 2.67 -1.7 2.34 0 2 C0 1.34 0 0.68 0 0 Z " fill="#4573A1" transform="translate(272,361)"/>
<path d="M0 0 C1.32 0.33 2.64 0.66 4 1 C4 2.32 4 3.64 4 5 C3.01 5.495 3.01 5.495 2 6 C2 5.01 2 4.02 2 3 C0.35 3.33 -1.3 3.66 -3 4 C-2.01 2.68 -1.02 1.36 0 0 Z " fill="#D1807D" transform="translate(156,336)"/>
<path d="M0 0 C1.4540625 0.0309375 1.4540625 0.0309375 2.9375 0.0625 C2.9375 0.7225 2.9375 1.3825 2.9375 2.0625 C1.6175 2.0625 0.2975 2.0625 -1.0625 2.0625 C-1.0625 3.3825 -1.0625 4.7025 -1.0625 6.0625 C-1.7225 6.0625 -2.3825 6.0625 -3.0625 6.0625 C-3.44468767 4.40635343 -3.77645102 2.73792976 -4.0625 1.0625 C-3.0625 0.0625 -3.0625 0.0625 0 0 Z " fill="#D15146" transform="translate(353.0625,324.9375)"/>
<path d="M0 0 C3.91211733 1.15585285 6.8745041 2.35534962 10 5 C7.03 4.67 4.06 4.34 1 4 C0.67 2.68 0.34 1.36 0 0 Z " fill="#6BADCB" transform="translate(181,293)"/>
<path d="M0 0 C2.97 0.33 5.94 0.66 9 1 C9.33 2.32 9.66 3.64 10 5 C6.08788267 3.84414715 3.1254959 2.64465038 0 0 Z " fill="#E5AA6A" transform="translate(189,286)"/>
<path d="M0 0 C3.37705625 0.53725895 6.696686 1.11064623 10 2 C9.67 2.99 9.34 3.98 9 5 C5.22454612 3.90931332 2.52956528 3.0916909 0 0 Z " fill="#9FBB6F" transform="translate(237,258)"/>
<path d="M0 0 C0.33 0.66 0.66 1.32 1 2 C-1.90572328 4.47524576 -4.15822926 5.69670231 -8 6 C-8.66 5.34 -9.32 4.68 -10 4 C-6.7 2.68 -3.4 1.36 0 0 Z " fill="#ADC281" transform="translate(342,230)"/>
<path d="M0 0 C0.66 0.33 1.32 0.66 2 1 C2 2.32 2 3.64 2 5 C1.360625 4.814375 0.72125 4.62875 0.0625 4.4375 C-0.9584375 4.2209375 -0.9584375 4.2209375 -2 4 C-2.33 4.33 -2.66 4.66 -3 5 C-3.33 4.01 -3.66 3.02 -4 2 C-2.125 0.9375 -2.125 0.9375 0 0 Z " fill="#5BA7CF" transform="translate(240,165)"/>
<path d="M0 0 C0 1.98 0 3.96 0 6 C-2.31 5.67 -4.62 5.34 -7 5 C-2.25 0 -2.25 0 0 0 Z " fill="#275E95" transform="translate(333,295)"/>
<path d="M0 0 C1.32 0.66 2.64 1.32 4 2 C3.34 3.32 2.68 4.64 2 6 C1.34 6 0.68 6 0 6 C0 5.01 0 4.02 0 3 C-0.99 2.67 -1.98 2.34 -3 2 C-2.01 1.34 -1.02 0.68 0 0 Z " fill="#B5C58D" transform="translate(189,231)"/>
<path d="M0 0 C0.99 0.33 1.98 0.66 3 1 C3 1.99 3 2.98 3 4 C-1.455 5.485 -1.455 5.485 -6 7 C-5.67 6.01 -5.34 5.02 -5 4 C-3.35 4 -1.7 4 0 4 C0 2.68 0 1.36 0 0 Z " fill="#CE6F68" transform="translate(384,342)"/>
<path d="M0 0 C1.32 0 2.64 0 4 0 C4 1.65 4 3.3 4 5 C2.68 5.33 1.36 5.66 0 6 C0 4.02 0 2.04 0 0 Z " fill="#8CAB46" transform="translate(169,236)"/>
<path d="M0 0 C2 3 2 3 1.625 5.6875 C1.41875 6.450625 1.2125 7.21375 1 8 C0.01 7.67 -0.98 7.34 -2 7 C-2 5.02 -2 3.04 -2 1 C-1.34 0.67 -0.68 0.34 0 0 Z " fill="#86C2DA" transform="translate(282,176)"/>
<path d="M0 0 C0.99 0 1.98 0 3 0 C3 2.97 3 5.94 3 9 C2.34 7.68 1.68 6.36 1 5 C0.34 5 -0.32 5 -1 5 C-0.67 3.35 -0.34 1.7 0 0 Z " fill="#CF5F59" transform="translate(393,326)"/>
<path d="M0 0 C3.375 -0.125 3.375 -0.125 7 0 C7.66 0.66 8.32 1.32 9 2 C7.02 2 5.04 2 3 2 C3 2.66 3 3.32 3 4 C1.68 3.67 0.36 3.34 -1 3 C-0.67 2.01 -0.34 1.02 0 0 Z " fill="#EA9B47" transform="translate(217,262)"/>
<path d="M0 0 C4.62 0 9.24 0 14 0 C10 3 10 3 7 4 C7 3.34 7 2.68 7 2 C4.69 1.67 2.38 1.34 0 1 C0 0.67 0 0.34 0 0 Z " fill="#C1DEAF" transform="translate(179,258)"/>
<path d="M0 0 C0.99 0 1.98 0 3 0 C2.67 1.65 2.34 3.3 2 5 C0.35 4.67 -1.3 4.34 -3 4 C-2.34 3.67 -1.68 3.34 -1 3 C-0.67 2.01 -0.34 1.02 0 0 Z " fill="#95B358" transform="translate(186,234)"/>
<path d="M0 0 C2.475 0.495 2.475 0.495 5 1 C5 2.32 5 3.64 5 5 C3.68 5 2.36 5 1 5 C0.67 3.35 0.34 1.7 0 0 Z " fill="#62A6C8" transform="translate(302,170)"/>
<path d="M0 0 C-0.57344937 2.86724686 -0.8614515 3.8614515 -3 6 C-3 5.34 -3 4.68 -3 4 C-4.32 3.67 -5.64 3.34 -7 3 C-2.25 0 -2.25 0 0 0 Z " fill="#80BACD" transform="translate(274,146)"/>
<path d="M0 0 C7.75 0.75 7.75 0.75 10 3 C8.375 3.6875 8.375 3.6875 6 4 C2.75 2.5625 2.75 2.5625 0 1 C0 0.67 0 0.34 0 0 Z " fill="#61AACD" transform="translate(229,358)"/>
<path d="M0 0 C0.721875 0.144375 1.44375 0.28875 2.1875 0.4375 C3.5796875 0.7159375 3.5796875 0.7159375 5 1 C6.66666667 1.33333333 8.33333333 1.66666667 10 2 C9.67 2.99 9.34 3.98 9 5 C5.22454612 3.90931332 2.52956528 3.0916909 0 0 Z " fill="#7BB7CE" transform="translate(202,344)"/>
<path d="M0 0 C0.66 0.33 1.32 0.66 2 1 C-0.35277269 3.72426311 -2.62496331 4.8141763 -6 6 C-6 5.01 -6 4.02 -6 3 C-5.01 3 -4.02 3 -3 3 C-3 2.34 -3 1.68 -3 1 C-2.01 0.67 -1.02 0.34 0 0 Z " fill="#CF7B5E" transform="translate(326,284)"/>
<path d="M0 0 C2.3125 0.8125 2.3125 0.8125 4 2 C-0.43076923 4.09230769 -0.43076923 4.09230769 -3.3125 3.625 C-3.869375 3.41875 -4.42625 3.2125 -5 3 C-2.75 1.375 -2.75 1.375 0 0 Z " fill="#D68E72" transform="translate(298,259)"/>
<path d="M0 0 C0.33 0 0.66 0 1 0 C1 3.63 1 7.26 1 11 C0.01 11.33 -0.98 11.66 -2 12 C-1.34 8.04 -0.68 4.08 0 0 Z " fill="#5B8453" transform="translate(295,239)"/>
<path d="M0 0 C2.31 0.33 4.62 0.66 7 1 C6.01 1.495 6.01 1.495 5 2 C5 2.66 5 3.32 5 4 C3.35 3.67 1.7 3.34 0 3 C0 2.01 0 1.02 0 0 Z " fill="#61A3BF" transform="translate(291,159)"/>
<path d="M0 0 C-0.33 1.65 -0.66 3.3 -1 5 C-2.32 4.34 -3.64 3.68 -5 3 C-5 2.34 -5 1.68 -5 1 C-3 0 -3 0 0 0 Z " fill="#D25051" transform="translate(158,339)"/>
<path d="M0 0 C-1.28650706 0.69710731 -2.57940665 1.38242876 -3.875 2.0625 C-4.95394531 2.63677734 -4.95394531 2.63677734 -6.0546875 3.22265625 C-6.69664062 3.47917969 -7.33859375 3.73570312 -8 4 C-8.66 3.67 -9.32 3.34 -10 3 C-8 0 -8 0 -6.125 -0.75 C-3.79860996 -1.02369295 -2.2373866 -0.61785571 0 0 Z " fill="#D78C75" transform="translate(304,299)"/>
<path d="M0 0 C6.75 0.75 6.75 0.75 9 3 C7.3125 3.6875 7.3125 3.6875 5 4 C2.25 2.625 2.25 2.625 0 1 C0 0.67 0 0.34 0 0 Z " fill="#AAC07C" transform="translate(225,252)"/>
<path d="M0 0 C5.75 1.875 5.75 1.875 8 3 C8 3.66 8 4.32 8 5 C5.07120629 4.37240135 2.63904371 3.41377341 0 2 C0 1.34 0 0.68 0 0 Z " fill="#A0BB73" transform="translate(231,214)"/>
<path d="M0 0 C1.65 0 3.3 0 5 0 C4.34 0.66 3.68 1.32 3 2 C2.83318891 5.08347826 2.83318891 5.08347826 3 8 C2.34 8 1.68 8 1 8 C1 6.35 1 4.7 1 3 C0.34 3 -0.32 3 -1 3 C-0.67 2.01 -0.34 1.02 0 0 Z " fill="#4995BF" transform="translate(273,143)"/>
<path d="M0 0 C0.99 0.33 1.98 0.66 3 1 C2.34 4.3 1.68 7.6 1 11 C0.67 11 0.34 11 0 11 C0 7.37 0 3.74 0 0 Z " fill="#1C6CA6" transform="translate(258,334)"/>
<path d="M0 0 C1.32 1.32 2.64 2.64 4 4 C3.01 4.495 3.01 4.495 2 5 C-0.03144641 4.06553465 -2.03533587 3.06775224 -4 2 C-2.68 1.34 -1.36 0.68 0 0 Z " fill="#3A96C4" transform="translate(197,337)"/>
<path d="M0 0 C3.66881155 0.70554068 6.70450534 2.27735506 10 4 C7.39417629 4.93065133 6.35801776 5.14917407 3.75 4.0625 C3.1725 3.711875 2.595 3.36125 2 3 C2 2.34 2 1.68 2 1 C1.34 0.67 0.68 0.34 0 0 Z " fill="#81B8D2" transform="translate(245,326)"/>
<path d="M0 0 C0.33 0.66 0.66 1.32 1 2 C3.02463255 2.65213292 3.02463255 2.65213292 5 3 C4.67 3.66 4.34 4.32 4 5 C2.35 4.67 0.7 4.34 -1 4 C-0.67 2.68 -0.34 1.36 0 0 Z " fill="#D4804E" transform="translate(257,316)"/>
<path d="M0 0 C0.99 0.33 1.98 0.66 3 1 C2.67 2.65 2.34 4.3 2 6 C1.01 5.34 0.02 4.68 -1 4 C-0.67 2.68 -0.34 1.36 0 0 Z " fill="#4EA7D7" transform="translate(191,298)"/>
<path d="M0 0 C0 1.98 0 3.96 0 6 C-0.33 5.01 -0.66 4.02 -1 3 C-2.98 3 -4.96 3 -7 3 C-4.74624683 0.74624683 -3.20799182 0 0 0 Z " fill="#A2BB9F" transform="translate(297,208)"/>
<path d="" fill="#FFFFFF" transform="translate(0,0)"/>
<path d="" fill="#FFFFFF" transform="translate(0,0)"/>
<path d="" fill="#FFFFFF" transform="translate(0,0)"/>
<path d="" fill="#FFFFFF" transform="translate(0,0)"/>
<path d="" fill="#FFFFFF" transform="translate(0,0)"/>
<path d="" fill="#FFFFFF" transform="translate(0,0)"/>
<path d="" fill="#FFFFFF" transform="translate(0,0)"/>
<path d="" fill="#FFFFFF" transform="translate(0,0)"/>
<path d="" fill="#FFFFFF" transform="translate(0,0)"/>
<path d="" fill="#FFFFFF" transform="translate(0,0)"/>
<path d="" fill="#FFFFFF" transform="translate(0,0)"/>
<path d="" fill="#FFFFFF" transform="translate(0,0)"/>
<path d="" fill="#FFFFFF" transform="translate(0,0)"/>
<path d="" fill="#FFFFFF" transform="translate(0,0)"/>
<path d="" fill="#FFFFFF" transform="translate(0,0)"/>
<path d="" fill="#FFFFFF" transform="translate(0,0)"/>
<path d="" fill="#FFFFFF" transform="translate(0,0)"/>
<path d="" fill="#FFFFFF" transform="translate(0,0)"/>
<path d="" fill="#FFFFFF" transform="translate(0,0)"/>
<path d="" fill="#FFFFFF" transform="translate(0,0)"/>
<path d="" fill="#FFFFFF" transform="translate(0,0)"/>
<path d="" fill="#FFFFFF" transform="translate(0,0)"/>
<path d="" fill="#FFFFFF" transform="translate(0,0)"/>
<path d="" fill="#FFFFFF" transform="translate(0,0)"/>
<path d="" fill="#FFFFFF" transform="translate(0,0)"/>
<path d="" fill="#FFFFFF" transform="translate(0,0)"/>
<path d="" fill="#FFFFFF" transform="translate(0,0)"/>
<path d="" fill="#FFFFFF" transform="translate(0,0)"/>
<path d="" fill="#FFFFFF" transform="translate(0,0)"/>
<path d="" fill="#FFFFFF" transform="translate(0,0)"/>
<path d="" fill="#FFFFFF" transform="translate(0,0)"/>
<path d="" fill="#FFFFFF" transform="translate(0,0)"/>
<path d="" fill="#FFFFFF" transform="translate(0,0)"/>
<path d="" fill="#FFFFFF" transform="translate(0,0)"/>
<path d="" fill="#FFFFFF" transform="translate(0,0)"/>
<path d="" fill="#FFFFFF" transform="translate(0,0)"/>
<path d="" fill="#FFFFFF" transform="translate(0,0)"/>
<path d="" fill="#FFFFFF" transform="translate(0,0)"/>
<path d="" fill="#FFFFFF" transform="translate(0,0)"/>
<path d="" fill="#FFFFFF" transform="translate(0,0)"/>
<path d="" fill="#FFFFFF" transform="translate(0,0)"/>
<path d="" fill="#FFFFFF" transform="translate(0,0)"/>
<path d="" fill="#FFFFFF" transform="translate(0,0)"/>
<path d="" fill="#FFFFFF" transform="translate(0,0)"/>
<path d="" fill="#FFFFFF" transform="translate(0,0)"/>
<path d="" fill="#FFFFFF" transform="translate(0,0)"/>
<path d="" fill="#FFFFFF" transform="translate(0,0)"/>
<path d="" fill="#FFFFFF" transform="translate(0,0)"/>
<path d="" fill="#FFFFFF" transform="translate(0,0)"/>
<path d="" fill="#FFFFFF" transform="translate(0,0)"/>
<path d="" fill="#FFFFFF" transform="translate(0,0)"/>
<path d="" fill="#FFFFFF" transform="translate(0,0)"/>
<path d="" fill="#FFFFFF" transform="translate(0,0)"/>
<path d="" fill="#FFFFFF" transform="translate(0,0)"/>
<path d="" fill="#FFFFFF" transform="translate(0,0)"/>
<path d="" fill="#FFFFFF" transform="translate(0,0)"/>
<path d="" fill="#FFFFFF" transform="translate(0,0)"/>
<path d="" fill="#FFFFFF" transform="translate(0,0)"/>
<path d="" fill="#FFFFFF" transform="translate(0,0)"/>
<path d="" fill="#FFFFFF" transform="translate(0,0)"/>
<path d="" fill="#FFFFFF" transform="translate(0,0)"/>
<path d="" fill="#FFFFFF" transform="translate(0,0)"/>
<path d="" fill="#FFFFFF" transform="translate(0,0)"/>
<path d="" fill="#FFFFFF" transform="translate(0,0)"/>
<path d="" fill="#FFFFFF" transform="translate(0,0)"/>
<path d="" fill="#FFFFFF" transform="translate(0,0)"/>
<path d="" fill="#FFFFFF" transform="translate(0,0)"/>
<path d="" fill="#FFFFFF" transform="translate(0,0)"/>
<path d="" fill="#FFFFFF" transform="translate(0,0)"/>
<path d="" fill="#FFFFFF" transform="translate(0,0)"/>
<path d="" fill="#FFFFFF" transform="translate(0,0)"/>
<path d="" fill="#FFFFFF" transform="translate(0,0)"/>
<path d="" fill="#FFFFFF" transform="translate(0,0)"/>
<path d="" fill="#FFFFFF" transform="translate(0,0)"/>
<path d="" fill="#FFFFFF" transform="translate(0,0)"/>
<path d="" fill="#FFFFFF" transform="translate(0,0)"/>
<path d="" fill="#FFFFFF" transform="translate(0,0)"/>
</svg>
